<svg width="938" height="963" viewBox="0 0 938 963" fill="none" xmlns="http://www.w3.org/2000/svg">
<path d="M736.325 21.8001C716.672 26.9201 647.858 49.7337 631.658 121.014H612.632C610.485 130.48 609.752 136.467 609.752 136.467H633.125C652.072 53.0668 743.058 36.0137 743.058 36.0137L736.325 21.8001Z" fill="#3D271E"/>
<path d="M736.325 21.8L725.992 0C647.178 5.94667 620.485 86.5602 612.632 121.014H631.658C647.858 49.7336 716.672 26.92 736.325 21.8Z" fill="#62412F"/>
<path d="M911.272 494.387C850.618 384.454 805.125 380.667 767.218 274.52C734.778 183.654 707.498 120.947 647.138 117.547C671.805 143.894 689.458 188.16 709.045 243.014C745.752 345.8 789.805 349.48 848.538 455.934C907.272 562.387 879.752 812.014 576.885 797.334C490.138 793.134 425.392 773.254 380.512 741.187C422.472 802.147 503.818 840.774 630.752 846.934C943.498 862.094 971.925 604.32 911.272 494.387Z" fill="#498531"/>
<path d="M848.539 455.934C789.805 349.48 745.752 345.8 709.045 243.014C689.459 188.16 671.805 143.894 647.125 117.547C636.979 116.974 625.899 118.067 613.699 121C518.925 143.734 577.685 103.934 429.845 361.707C342.005 514.854 319.072 651.947 380.512 741.187C425.392 773.253 490.152 793.134 576.885 797.334C879.739 812.014 907.272 562.387 848.539 455.934Z" fill="#579F39"/>
<path d="M435.979 725.173C426.565 725.173 416.645 720.88 406.339 711.28C298.072 610.467 444.699 430.413 444.699 430.413C457.952 420.427 469.299 415.973 478.885 415.973C518.779 415.973 528.032 493.28 517.325 570.573C506.605 647.88 475.939 725.173 435.979 725.173Z" fill="#529435"/>
<path d="M842.618 554.134C842.618 561.64 839.085 567.707 834.711 567.707C830.351 567.707 826.818 561.64 826.818 554.134C826.818 546.64 830.351 540.574 834.711 540.574C839.085 540.574 842.618 546.64 842.618 554.134Z" fill="#75B42C"/>
<path d="M767.698 646.32C767.698 653.827 764.152 659.894 759.792 659.894C755.432 659.894 751.885 653.827 751.885 646.32C751.885 638.827 755.432 632.76 759.792 632.76C764.152 632.76 767.698 638.827 767.698 646.32Z" fill="#75B42C"/>
<path d="M797.698 591.494C794.058 600.827 786.072 606.44 779.858 604.027C773.658 601.6 771.565 592.08 775.205 582.734C778.845 573.4 786.832 567.787 793.032 570.2C799.245 572.627 801.338 582.147 797.698 591.494Z" fill="#75B42C"/>
<path d="M826.819 636.853C823.179 646.187 815.192 651.8 808.979 649.387C802.779 646.96 800.685 637.427 804.325 628.094C807.965 618.747 815.939 613.134 822.152 615.56C828.365 617.974 830.459 627.507 826.819 636.853Z" fill="#75B42C"/>
<path d="M800.858 509.894C802.578 518.907 799.112 527.12 793.125 528.267C787.138 529.4 780.899 523.027 779.179 514.013C777.472 505.013 780.938 496.787 786.925 495.653C792.912 494.52 799.152 500.894 800.858 509.894Z" fill="#75B42C"/>
<path d="M725.112 740.587C720.752 744.467 715.405 745.547 713.152 743.014C710.898 740.48 712.592 735.28 716.952 731.414C721.298 727.547 726.658 726.467 728.912 729C731.152 731.534 729.458 736.72 725.112 740.587Z" fill="#75B42C"/>
<path d="M632.912 744.68C628.565 748.547 623.205 749.627 620.965 747.094C618.712 744.56 620.405 739.374 624.765 735.507C629.112 731.627 634.458 730.547 636.712 733.08C638.965 735.614 637.272 740.814 632.912 744.68Z" fill="#75B42C"/>
<path d="M680.232 733.8C672.938 736.507 665.552 734.76 663.752 729.907C661.952 725.054 666.405 718.92 673.712 716.214C681.005 713.507 688.392 715.24 690.192 720.094C691.992 724.96 687.538 731.08 680.232 733.8Z" fill="#75B42C"/>
<path d="M668.939 774.107C661.632 776.814 654.258 775.08 652.458 770.227C650.645 765.374 655.112 759.24 662.405 756.534C669.712 753.814 677.085 755.56 678.885 760.414C680.685 765.267 676.232 771.4 668.939 774.107Z" fill="#75B42C"/>
<path d="M729.232 693.52C724.898 699.16 718.338 701.387 714.578 698.507C710.832 695.614 711.312 688.694 715.658 683.054C720.005 677.414 726.565 675.187 730.312 678.08C734.058 680.96 733.578 687.88 729.232 693.52Z" fill="#75B42C"/>
<path d="M585.405 192.414C584.098 195.094 581.778 196.64 580.218 195.894C578.658 195.134 578.445 192.347 579.752 189.667C581.058 186.987 583.378 185.427 584.938 186.187C586.498 186.947 586.698 189.734 585.405 192.414Z" fill="#75B42C"/>
<path d="M542.605 212.334C541.299 215.014 538.979 216.574 537.419 215.814C535.859 215.054 535.645 212.267 536.952 209.6C538.259 206.92 540.579 205.36 542.139 206.12C543.699 206.88 543.899 209.667 542.605 212.334Z" fill="#75B42C"/>
<path d="M562.858 197.96C559.925 200.667 556.098 201.28 554.298 199.333C552.498 197.387 553.418 193.627 556.338 190.92C559.258 188.213 563.085 187.587 564.885 189.533C566.685 191.48 565.778 195.254 562.858 197.96Z" fill="#75B42C"/>
<path d="M565.378 219.227C562.458 221.933 558.632 222.547 556.832 220.6C555.032 218.667 555.938 214.893 558.858 212.187C561.792 209.48 565.618 208.867 567.418 210.8C569.218 212.747 568.298 216.52 565.378 219.227Z" fill="#75B42C"/>
<path d="M578.165 169.347C577.205 172.854 574.539 175.2 572.205 174.56C569.872 173.934 568.752 170.56 569.698 167.054C570.645 163.534 573.312 161.2 575.658 161.827C577.992 162.467 579.112 165.827 578.165 169.347Z" fill="#75B42C"/>
<path d="M6.7251 473.08C-4.07489 430.52 -2.68831 393.213 16.9117 360.787C13.3784 403.893 22.8051 412.867 64.0185 535.547C130.485 733.387 184.979 944.52 432.672 909.134C540.339 893.76 599.539 839.72 632.072 783.534C562.138 950.84 373.418 999.507 227.405 934.347C44.3518 852.667 22.0984 533.747 6.7251 473.08Z" fill="#498531"/>
<path d="M432.672 909.134C184.979 944.52 130.485 733.387 64.0185 535.547C22.8051 412.867 13.3783 403.893 16.9117 360.787C25.245 347 36.8584 334.107 52.2317 322.067C52.2317 322.067 133.445 275.174 224.592 345.694C315.738 416.214 658.858 347.614 659.738 633.227C659.925 691.014 649.818 741.094 632.072 783.534C599.538 839.72 540.339 893.76 432.672 909.134Z" fill="#A5C626"/>
<path d="M79.5785 341.84C46.2585 363.2 61.8851 404.067 89.2451 437.653C116.592 471.227 138.872 842.173 334.912 875.987C530.952 909.8 639.738 763.147 614.698 634.28C589.659 505.413 530.285 449.467 420.672 431.534C311.045 413.613 207.125 378.094 160.005 342.494C112.872 306.88 79.5785 341.84 79.5785 341.84Z" fill="#F7F22C"/>
<path d="M264.791 527.547C200.231 566.493 250.952 661.467 294.338 722C337.738 782.52 436.885 819.213 536.472 729.613C636.045 640 463.178 407.853 264.791 527.547Z" fill="#FBF9A7"/>
<path d="M283.565 531.88C218.752 584.88 315.165 849.334 487.178 753.574C659.178 657.814 409.592 428.787 283.565 531.88Z" fill="#872C2C"/>
<path d="M313.432 525.307C270.552 549.48 324.952 703.387 445.752 684.587C566.552 665.8 482.965 539.52 400.392 526.053C317.818 512.587 313.432 525.307 313.432 525.307Z" fill="#A23F37"/>
<path d="M471.152 724.013C470.978 730.68 478.485 736.28 487.898 736.52C497.312 736.76 505.085 731.547 505.258 724.88C505.418 718.2 497.925 712.6 488.512 712.36C479.085 712.12 471.312 717.347 471.152 724.013Z" fill="#6C1F23"/>
<path d="M399.698 724.853C397.312 726.893 398.298 731.934 401.885 736.094C405.485 740.254 410.312 741.96 412.698 739.92C415.072 737.867 414.085 732.827 410.498 728.667C406.912 724.507 402.072 722.8 399.698 724.853Z" fill="#6C1F23"/>
<path d="M334.418 711.72C332.725 715.773 335.472 720.774 340.552 722.894C345.618 725 351.098 723.427 352.792 719.374C354.472 715.307 351.738 710.32 346.658 708.2C341.578 706.094 336.098 707.667 334.418 711.72Z" fill="#6C1F23"/>
<path d="M489.325 679.36C487.978 683.467 492.045 688.48 498.392 690.547C504.725 692.613 510.965 690.96 512.298 686.853C513.632 682.76 509.578 677.747 503.232 675.68C496.898 673.613 490.658 675.254 489.325 679.36Z" fill="#6C1F23"/>
<path d="M517.138 620.827C514.512 622.4 514.338 626.974 516.778 631.027C519.205 635.094 523.298 637.12 525.925 635.547C528.565 633.974 528.725 629.4 526.298 625.347C523.872 621.28 519.765 619.254 517.138 620.827Z" fill="#6C1F23"/>
<path d="M284.245 627.307C281.605 628.88 281.445 633.44 283.872 637.507C286.299 641.574 290.405 643.587 293.032 642.027C295.658 640.454 295.832 635.88 293.405 631.814C290.965 627.747 286.872 625.734 284.245 627.307Z" fill="#6C1F23"/>
<path d="M318.351 647.347C315.725 648.92 315.565 653.493 317.991 657.547C320.418 661.613 324.525 663.64 327.151 662.067C329.778 660.494 329.938 655.92 327.511 651.867C325.085 647.8 320.991 645.773 318.351 647.347Z" fill="#6C1F23"/>
<path d="M382.125 702.147C383.245 706.08 387.352 708.36 391.285 707.227C395.232 706.107 397.499 702 396.379 698.067C395.245 694.134 391.152 691.854 387.219 692.974C383.272 694.107 381.005 698.214 382.125 702.147Z" fill="#6C1F23"/>
<path d="M436.192 742.28C437.325 746.227 441.418 748.494 445.365 747.374C449.298 746.254 451.578 742.147 450.445 738.213C449.325 734.267 445.218 732 441.285 733.12C437.352 734.253 435.072 738.347 436.192 742.28Z" fill="#6C1F23"/>
<path d="M521.539 284.867C521.539 284.867 458.045 364.574 500.805 381.627C543.579 398.694 573.445 229.773 521.539 284.867Z" fill="#72BB4C"/>
</svg>
