<svg width="931" height="898" viewBox="0 0 931 898" fill="none" xmlns="http://www.w3.org/2000/svg">
<path d="M443.312 329.493C443.312 329.493 468.699 384.813 494.979 378.947C462.499 147.547 401.285 0 401.285 0C309.712 158.44 443.312 329.493 443.312 329.493Z" fill="#277A37"/>
<path d="M536.018 288.92C566.445 112.6 401.285 0.000183105 401.285 0.000183105C401.285 0.000183105 462.498 147.547 494.978 378.947C509.858 375.627 525.018 352.68 536.018 288.92Z" fill="#34A446"/>
<path d="M500.912 327.373C500.912 327.373 484.552 386.013 508.392 398.493C633.085 200.88 681.672 48.7068 681.672 48.7068C509.432 110.493 500.912 327.373 500.912 327.373Z" fill="#277A37"/>
<path d="M597.885 356.294C735.005 241.347 681.672 48.707 681.672 48.707C681.672 48.707 633.085 200.88 508.392 398.494C521.898 405.574 548.298 397.854 597.885 356.294Z" fill="#34A446"/>
<path d="M681.925 333.293C681.925 333.293 628.925 311.373 611.792 333.053C775.565 473.933 911.806 536.693 911.806 536.693C889.086 364.213 681.925 333.293 681.925 333.293Z" fill="#277A37"/>
<path d="M633.325 423.733C714.778 567.933 911.805 536.693 911.805 536.693C911.805 536.693 775.565 473.933 611.792 333.053C602.085 345.333 603.885 371.587 633.325 423.733Z" fill="#34A446"/>
<path d="M604.565 287.773C604.565 287.773 551.272 319.814 559.098 348.72C787.538 296.974 930.165 218.8 930.165 218.8C765.232 127.253 604.565 287.773 604.565 287.773Z" fill="#277A37"/>
<path d="M651.992 388.48C830.205 410.613 930.165 218.8 930.165 218.8C930.165 218.8 787.539 296.974 559.099 348.72C563.525 365.107 587.565 380.48 651.992 388.48Z" fill="#34A446"/>
<path d="M720.499 344.347C720.499 344.347 623.525 207.253 459.672 200.56C295.819 193.88 195.499 414.573 152.032 548.333C108.565 682.08 -48.6082 718.867 14.9252 832.56C78.4585 946.253 504.525 915.72 710.458 705.493C870.965 541.64 720.499 344.347 720.499 344.347Z" fill="#E61D25"/>
<path d="M732.766 572.627C531.046 778.547 131.939 823.347 13.6989 736.133C-2.72781 763.933 -6.75458 793.773 14.9254 832.56C78.4588 946.253 504.525 915.72 710.459 705.493C775.659 638.933 789.552 566.853 783.045 504.72C770.965 527.587 754.539 550.4 732.766 572.627Z" fill="#C51E25"/>
<path d="M339.379 317.347C336.072 317.347 332.752 317.04 329.432 316.373C258.859 302.253 400.019 230.267 400.019 230.267C409.232 224.453 416.005 221.96 420.645 221.96C434.992 221.96 429.059 245.8 412.352 269.653C395.645 293.507 368.152 317.347 339.379 317.347Z" fill="#EE6119"/>
<path d="M681.419 603.707C676.685 603.707 671.952 602.747 667.285 600.653C635.565 586.44 707.485 495.28 737.858 495.28C745.325 495.28 750.285 500.8 750.565 514.347C751.299 550.173 716.712 603.707 681.419 603.707Z" fill="#EE6119"/>
<path d="M598.779 380.8C595.525 380.8 592.112 380.213 588.552 378.947C545.699 363.68 563.725 289.547 604.085 289.547C606.579 289.547 609.139 289.827 611.792 290.427C651.939 299.413 636.979 380.8 598.779 380.8Z" fill="#EE6119"/>
<path d="M487.112 577.173C462.405 577.173 451.405 566.053 480.952 539.547C512.685 511.107 549.605 498.387 573.938 498.387C599.418 498.387 611.098 512.32 588.552 536.693C565.872 561.227 516.672 577.173 487.112 577.173Z" fill="#EE6119"/>
<path d="M717.485 475.693C712.885 475.693 708.498 473.933 704.978 470.027C692.832 456.533 704.139 394.68 722.472 394.68C729.072 394.68 736.578 402.693 744.232 423.88C754.312 451.76 734.458 475.693 717.485 475.693Z" fill="#EE6119"/>
<path d="M597.792 765.027C565.098 765.027 544.578 726.76 572.712 710.653C586.805 702.573 607.325 697.733 624.552 697.733C653.912 697.733 673.672 711.8 635.578 747.853C622.538 760.213 609.392 765.027 597.792 765.027Z" fill="#E45F1A"/>
<path d="M391.392 724.04C351.779 724.04 361.819 688.067 413.205 664.813C426.272 658.907 436.699 656.427 444.659 656.427C481.592 656.427 465.459 709.733 413.205 721.32C404.739 723.187 397.485 724.04 391.392 724.04Z" fill="#EE6119"/>
<path d="M518.899 677.027C514.299 677.027 510.645 676.213 508.392 674.4C492.445 661.6 524.312 607.28 572.019 607.28C581.045 607.28 590.619 609.213 600.565 613.747C640.499 631.947 553.165 677.027 518.899 677.027Z" fill="#EE6119"/>
<path d="M182.259 583.813C181.619 583.813 180.952 583.787 180.299 583.747C128.072 580.307 184.925 511.16 205.699 489.08C209.712 484.813 213.152 482.947 216.019 482.947C226.485 482.947 229.152 508.16 223.632 533.373C218.125 558.6 204.445 583.813 182.259 583.813Z" fill="#EE6119"/>
<path d="M116.645 743.693C96.165 743.693 103.458 697.4 119.592 670.533C125.525 660.667 132.458 656.547 138.992 656.547C160.432 656.547 177.565 700.92 140.765 731.387C130.272 740.08 122.378 743.693 116.645 743.693Z" fill="#EE6119"/>
<path d="M75.8721 764.2C61.3921 760.227 48.2188 755.413 36.6055 749.787C39.7388 746.293 43.0186 743.427 46.1919 741.467C51.1119 738.413 55.3787 737.067 59.0187 737.067C69.9654 737.067 75.2988 749.253 75.8721 764.2Z" fill="#EE6119"/>
<path d="M45.8988 818.653C44.1788 818.653 42.3922 818.427 40.5522 817.933C5.77886 808.747 18.9389 769.427 36.6056 749.787C48.2189 755.413 61.3923 760.227 75.8723 764.2C76.0323 768.6 75.7921 773.227 75.1655 777.853C72.3655 798.253 62.0055 818.653 45.8988 818.653Z" fill="#E45F1A"/>
<path d="M176.112 883.093C122.752 883.093 115.498 852.173 150.645 851.147C151.938 851.107 153.245 851.093 154.552 851.093C201.898 851.093 258.925 875.333 192.632 882.2C186.698 882.813 181.205 883.093 176.112 883.093Z" fill="#E45F1A"/>
<path d="M296.365 861.773C279.579 861.773 283.152 850.92 295.672 840.067C308.192 829.2 329.646 818.347 348.606 818.347C350.392 818.347 352.179 818.454 353.912 818.654C425.912 827.094 351.099 855.387 303.099 861.307C300.565 861.627 298.325 861.773 296.365 861.773Z" fill="#E45F1A"/>
<path d="M197.139 778.36C183.966 778.36 171.165 777.96 158.792 777.173C169.299 767.04 189.272 757.56 209.219 757.56C218.752 757.56 228.272 759.733 236.752 765.027C243.459 769.213 248.259 772.947 251.379 776.253C232.765 777.653 214.646 778.36 197.139 778.36Z" fill="#EE6119"/>
<path d="M174.485 801.32C148.925 801.32 146.885 790.387 156.605 779.44C157.272 778.68 158.005 777.933 158.792 777.173C171.165 777.96 183.965 778.36 197.139 778.36C214.645 778.36 232.765 777.654 251.378 776.254C269.245 795.227 231.338 800.48 175.898 801.32C175.418 801.32 174.952 801.32 174.485 801.32Z" fill="#E45F1A"/>
<path d="M462.219 819.08C458.552 819.08 454.912 818.84 451.312 818.347C397.672 810.96 461.192 781.84 495.445 779.44C499.232 779.173 502.659 779.054 505.765 779.054C533.485 779.054 534.699 789.067 522.925 799.067C511.152 809.067 486.405 819.08 462.219 819.08Z" fill="#E45F1A"/>
<path d="M267.392 710.653C259.898 710.653 252.058 709.267 244.098 706.08C182.245 681.253 262.005 664.907 305.512 656.573C308.738 655.96 311.592 655.667 314.085 655.667C331.298 655.667 331.472 669.413 321.405 683.16C311.352 696.907 291.072 710.653 267.392 710.653Z" fill="#EE6119"/>
<path d="M297.206 771.453C304.032 760.68 319.152 749.707 334.379 747.853C342.232 746.907 348.979 746.48 354.725 746.48C371.939 746.48 380.206 750.36 381.939 755.907C353.339 762.587 324.926 767.76 297.206 771.453Z" fill="#EE6119"/>
<path d="M312.858 793.973C292.031 793.973 290.005 782.813 297.205 771.453C324.925 767.76 353.338 762.587 381.938 755.907C385.805 768.253 357.285 788.853 322.858 793.267C319.125 793.747 315.805 793.973 312.858 793.973Z" fill="#E45F1A"/>
<path d="M505.779 255.813C489.152 255.813 470.125 252.507 460.005 247.827C440.792 238.947 469.525 216.587 497.832 216.587C507.325 216.587 516.779 219.093 524.352 225.48C551.139 248.027 531.299 255.813 505.779 255.813Z" fill="#EE6119"/>
<path d="M243.845 430.493C242.472 430.493 241.045 430.36 239.579 430.093C198.645 422.627 238.432 394.693 255.845 372.627C260.139 367.173 263.699 364.88 266.512 364.88C274.005 364.88 276.112 381.28 272.459 397.68C268.805 414.08 259.392 430.493 243.845 430.493Z" fill="#EE6119"/>
<path d="M331.379 393.267C309.539 393.254 311.539 358 321.912 345.947C327.672 339.24 333.605 336.494 339.059 336.494C359.859 336.494 373.712 376.507 345.152 389.694C339.765 392.174 335.205 393.267 331.379 393.267Z" fill="#EE6119"/>
<path d="M255.152 610.987C252.739 610.987 250.339 610.84 247.952 610.533C193.165 603.533 246.819 564.373 293.432 555.067C299.965 553.773 305.419 553.173 309.899 553.173C332.045 553.173 330.392 567.627 317.179 582.08C303.979 596.533 279.219 610.987 255.152 610.987Z" fill="#EE6119"/>
<path d="M308.245 511.133C305.458 511.133 302.552 510.973 299.565 510.653C241.352 504.48 277.245 455.507 324.285 455.507C325.138 455.507 326.018 455.52 326.885 455.56C378.965 457.56 360.965 511.133 308.245 511.133Z" fill="#EE6119"/>
<path d="M410.752 391.04C407.685 391.04 404.525 390.787 401.285 390.253C338.899 380.013 393.605 337.587 438.912 323.48C443.312 322.107 447.152 321.493 450.472 321.493C467.952 321.493 470.752 338.88 462.805 356.267C454.859 373.653 436.192 391.053 410.752 391.04Z" fill="#EE6119"/>
<path d="M643.512 447.613C636.778 447.613 632.245 441.107 633.325 423.733C635.352 391.373 646.939 380.253 658.939 380.253C667.379 380.253 676.019 385.76 681.672 393.267C691.472 406.267 660.498 447.627 643.512 447.613Z" fill="#EE6119"/>
<path d="M418.512 533.467C417.672 533.467 416.805 533.44 415.925 533.373C362.885 529.68 395.725 480.613 432.098 455.507C436.872 452.2 441.032 450.747 444.592 450.747C457.965 450.747 462.619 471.427 458.339 492.107C454.059 512.787 440.845 533.467 418.512 533.467Z" fill="#EE6119"/>
<path d="M365.392 645.24C358.552 645.24 351.339 644.28 344.032 642.147C303.445 630.28 328.912 584.133 368.552 584.133C377.499 584.133 387.179 586.493 396.965 592.12C433.112 612.907 405.259 645.24 365.392 645.24Z" fill="#EE6119"/>
<path d="M513.298 436.36C510.458 436.36 507.432 435.987 504.245 435.187C456.952 423.293 489.058 376.987 518.712 371.92C520.592 371.6 522.352 371.453 524.032 371.453C541.272 371.453 547.992 387.68 545.698 403.907C543.405 420.133 532.098 436.36 513.298 436.36Z" fill="#EE6119"/>
<path d="M508.965 337.493C505.632 337.493 502.218 337.173 498.778 336.493C463.738 329.587 484.952 280.333 517.392 280.333C522.032 280.333 526.912 281.347 531.872 283.627C571.005 301.64 544.418 337.493 508.965 337.493Z" fill="#EE6119"/>
</svg>
