<svg width="837" height="939" viewBox="0 0 837 939" fill="none" xmlns="http://www.w3.org/2000/svg">
<path d="M835.573 552.924C835.573 765.417 663.32 937.67 450.827 937.67C238.347 937.67 66.08 765.417 66.08 552.924C66.08 340.444 238.347 168.177 450.827 168.177C663.32 168.177 835.573 340.444 835.573 552.924Z" fill="#F78E1B"/>
<path d="M683.467 246.71C717.653 304.19 737.28 371.324 737.28 443.057C737.28 655.537 565.027 827.804 352.533 827.804C265.427 827.804 185.093 798.844 120.6 750.044C187.667 862.857 310.773 938.444 451.533 938.444C664.027 938.444 836.28 766.19 836.28 553.697C836.28 428.324 776.307 316.95 683.467 246.71Z" fill="#EE8015"/>
<path d="M517.734 250.711C517.734 260.977 489.347 269.311 454.32 269.311C419.294 269.311 390.907 260.977 390.907 250.711C390.907 240.457 419.294 232.124 454.32 232.124C489.347 232.124 517.734 240.457 517.734 250.711Z" fill="#DC572D"/>
<path d="M499.533 245.377C499.533 252.697 479.293 258.644 454.32 258.644C429.347 258.644 409.107 252.697 409.107 245.377C409.107 238.057 429.347 232.124 454.32 232.124C479.293 232.124 499.533 238.057 499.533 245.377Z" fill="#C54221"/>
<path d="M484.12 245.377C484.12 250.204 470.774 254.124 454.32 254.124C437.867 254.124 424.52 250.204 424.52 245.377C424.52 240.564 437.867 236.644 454.32 236.644C470.774 236.644 484.12 240.564 484.12 245.377Z" fill="#A12D1F"/>
<path d="M283.893 159.217C128.6 182.044 4.77344 86.2972 4.77344 86.2972C1.57344 77.5905 0 72.3105 0 72.3105C42.1333 108.177 139.68 95.3372 139.68 95.3372C401.867 73.8438 455.6 246.11 455.6 246.11C455.6 246.11 381.307 150.844 283.893 159.217Z" fill="#34913A"/>
<path d="M173.067 243.23C74.5333 252.67 20.3601 128.737 4.77344 86.2972C4.77344 86.2972 128.6 182.044 283.893 159.217C381.307 150.844 455.6 246.11 455.6 246.11C369.587 161.43 291.787 231.857 173.067 243.23Z" fill="#40B43C"/>
<path d="M450.827 245.377C450.827 245.377 499.147 60.4438 542.334 4.05717C542.334 4.05717 571.12 -11.5428 563.92 18.4439C556.734 48.4439 482.347 179.591 465.547 245.377C465.547 245.377 470.52 245.377 450.827 245.377Z" fill="#3E6629"/>
<path d="M561.48 1.36395C555.067 -2.84938 542.334 4.0439 542.334 4.0439C499.147 60.4306 450.827 245.377 450.827 245.377C457.6 245.377 461.454 245.377 463.6 245.377C463.6 245.377 511.907 60.4306 555.107 4.0439C555.107 4.0439 557.867 2.53728 561.48 1.36395Z" fill="#538E30"/>
<path d="M199.4 321.097C199.4 321.097 74.5068 463.777 106.067 561.737C137.613 659.684 290.013 248.177 199.4 321.097Z" fill="#F8A33F"/>
</svg>
