<svg width="726" height="929" viewBox="0 0 726 929" fill="none" xmlns="http://www.w3.org/2000/svg">
<path d="M595.793 315.112C637.509 369.592 661.753 434.632 661.753 504.486C661.753 696.419 478.771 852.019 253.049 852.019C202.508 852.019 154.112 844.206 109.429 829.952C174.759 891.032 264.049 928.659 362.509 928.659C562.719 928.659 725.02 773.059 725.02 581.125C725.02 474.366 674.808 378.859 595.793 315.112Z" fill="#371B46"/>
<path d="M661.753 504.485C661.753 434.632 637.509 369.592 595.793 315.112C532.745 264.245 451.361 233.592 362.509 233.592C162.303 233.592 0 389.192 0 581.125C0 678.672 41.92 766.832 109.431 829.952C154.112 844.205 202.507 852.019 253.049 852.019C478.771 852.019 661.753 696.419 661.753 504.485Z" fill="#4E2163"/>
<mask id="mask0_89_442" style="mask-type:luminance" maskUnits="userSpaceOnUse" x="149" y="271" width="457" height="151">
<path d="M377.916 421.672C251.985 421.672 149.897 388.112 149.897 346.699C149.897 305.286 251.985 271.712 377.916 271.712C503.847 271.712 605.935 305.286 605.935 346.699C605.935 388.112 503.847 421.672 377.916 421.672Z" fill="white"/>
</mask>
<g mask="url(#mask0_89_442)">
<path d="M149.897 421.672H605.935V271.712H149.897V421.672Z" fill="#3A1D4B"/>
</g>
<path d="M321.643 283.619C264.517 266.379 304.632 203.832 324.593 177.659C281.276 192.766 252.245 223.739 254.824 257.126C258.208 300.912 314.705 332.246 381.013 327.126C447.323 322.006 498.335 282.352 494.951 238.566C494.332 230.566 491.932 222.979 488.028 215.952C450.721 267.432 379.023 300.939 321.643 283.619Z" fill="#675B1E"/>
<path d="M368.761 168.552C352.999 169.779 338.103 172.952 324.593 177.659C304.632 203.832 264.517 266.379 321.643 283.619C379.023 300.939 450.721 267.432 488.028 215.952C470.577 184.539 422.949 164.366 368.761 168.552Z" fill="#53461A"/>
<path d="M271.333 210.819C264.123 207.926 256.555 205.352 248.675 203.125C176.98 182.979 106.643 200.539 91.5733 242.352C87.9173 252.499 87.86 263.139 90.8773 273.725C117.304 283.005 149.531 290.965 187.436 294.525C271.913 302.432 276.517 246.219 271.333 210.819Z" fill="#978C23"/>
<path d="M194.103 354.552C265.797 374.712 336.135 357.152 351.204 315.339C364.617 278.125 329.724 234.232 271.333 210.819C276.517 246.219 271.913 302.432 187.436 294.526C149.531 290.966 117.304 283.006 90.8773 273.726C100.303 306.766 139.8 339.286 194.103 354.552Z" fill="#7D7221"/>
<path d="M528.085 212.405C520.696 213.352 513.152 214.726 505.517 216.552C436.053 233.152 385.337 280.699 392.24 322.766C393.915 332.966 398.835 341.912 406.307 349.366C432.78 344.806 463.491 336.419 496.899 321.699C571.352 288.872 548.957 239.645 528.085 212.405Z" fill="#827921"/>
<path d="M530.517 368.872C599.983 352.272 650.699 304.725 643.795 262.659C637.649 225.219 587.927 204.752 528.085 212.405C548.957 239.645 571.352 288.872 496.899 321.699C463.491 336.419 432.78 344.805 406.307 349.365C429.633 372.645 477.904 381.445 530.517 368.872Z" fill="#5B501C"/>
<path d="M528.579 19.6721C527.995 26.2721 523.159 32.1921 513.285 36.2721C472.073 53.2854 404.011 154.566 371.871 243.832H342.992C342.044 249.472 341.568 252.672 341.568 252.672H396.383C426.443 169.179 490.097 74.4588 528.641 58.5388C549.113 50.0854 546.444 33.1654 528.579 19.6721Z" fill="#706E22"/>
<path d="M513.285 36.2721C523.159 32.1921 527.995 26.2721 528.579 19.6721C512.807 7.76547 485.191 -1.46115 451.197 0.192184C386.897 3.32552 350.419 199.499 342.992 243.832H371.871C404.011 154.566 472.073 53.2855 513.285 36.2721Z" fill="#9E9F21"/>
<path d="M377.916 349.659C322.439 349.659 275.42 325.766 259.149 292.712C255.196 300.752 253.049 309.326 253.049 318.219C253.049 363.766 308.953 400.686 377.916 400.686C446.879 400.686 502.784 363.766 502.784 318.219C502.784 309.326 500.637 300.752 496.683 292.712C480.412 325.766 433.395 349.659 377.916 349.659Z" fill="#6E621F"/>
<path d="M377.916 349.659C433.395 349.659 480.412 325.766 496.683 292.712C480.412 259.659 433.395 235.766 377.916 235.766C322.439 235.766 275.42 259.659 259.149 292.712C275.42 325.766 322.439 349.659 377.916 349.659Z" fill="#918721"/>
<path d="M534.423 32.4055C534.423 32.4055 509.129 1.31223 459.597 5.52556C410.067 9.73889 561.825 56.6322 534.423 32.4055Z" fill="#51451A"/>
<path d="M53.3506 495.286C53.3506 495.286 18.1319 615.526 74.6413 689.792C131.152 764.059 106.701 409.459 53.3506 495.286Z" fill="#673185"/>
</svg>
