<svg width="967" height="997" viewBox="0 0 967 997" fill="none" xmlns="http://www.w3.org/2000/svg">
<path d="M952.478 418.334C931.358 426.721 888.251 440.614 855.531 429.854C855.531 429.854 833.184 431.094 827.224 419.508C804.611 456.094 850.718 453.534 850.718 453.534C895.731 468.334 960.438 436.481 960.438 436.481C960.438 436.481 957.318 428.361 952.478 418.334Z" fill="#2C7132"/>
<path d="M855.531 429.854C888.251 440.614 931.358 426.721 952.478 418.334C942.998 398.681 926.918 371.694 914.758 384.121C896.384 402.881 835.731 407.841 835.731 407.841C832.198 412.121 829.398 415.988 827.224 419.508C833.184 431.094 855.531 429.854 855.531 429.854Z" fill="#348E3A"/>
<path d="M211.356 406.641C337.398 596.961 583.971 620.228 839.611 516.508C860.904 482.214 865.238 445.641 851.464 414.801C851.464 414.801 825.264 335.348 656.758 369.934C488.264 404.521 356.158 351.214 253.306 212.521C150.458 73.8276 196.567 0.400879 132.37 0.000854492C125.955 -0.0391235 119.731 1.38751 113.778 4.13422C94.9457 84.0409 91.5364 225.708 211.356 406.641Z" fill="#F9E12F"/>
<path d="M434.291 618.694C650.704 662.668 790.411 595.681 839.611 516.508C583.971 620.228 337.398 596.961 211.356 406.641C91.5363 225.708 94.9456 84.0409 113.778 4.13422C13.1283 50.4675 -10.045 474.681 434.291 618.694Z" fill="#F7BC0F"/>
<path d="M656.771 370.121C488.278 404.708 356.171 351.388 253.316 212.694C160.102 86.9877 189.247 14.8942 147.73 2.20087C136.422 171.388 270.531 363.361 417.024 449.921C552.851 530.188 741.664 441.561 831.651 389.361C807.984 369.761 758.118 349.308 656.771 370.121Z" fill="#F7D90A"/>
<path d="M130 22.8942C120.314 24.2275 111.784 20.3741 110.95 14.3075C110.114 8.22748 117.29 2.22753 126.975 0.894201C136.662 -0.439133 145.191 3.40092 146.026 9.48092C146.862 15.5476 139.686 21.5609 130 22.8942Z" fill="#348E3A"/>
<path d="M128.358 18.6943C120.584 19.761 113.74 16.6675 113.07 11.8008C112.4 6.92085 118.158 2.10762 125.93 1.04095C133.703 -0.0390491 140.547 3.05423 141.218 7.9209C141.888 12.8009 136.13 17.6143 128.358 18.6943Z" fill="#221D14"/>
<path d="M952.371 426.534C936.291 442.588 902.171 472.388 867.864 475.428C867.864 475.428 847.824 485.401 837.784 477.094C831.464 519.654 872.811 499.081 872.811 499.081C919.998 494.894 966.851 440.068 966.851 440.068C966.851 440.068 960.784 433.841 952.371 426.534Z" fill="#2C7132"/>
<path d="M867.864 475.428C902.171 472.388 936.291 442.588 952.371 426.534C935.904 412.228 910.464 393.788 904.198 410.014C894.744 434.508 840.984 463.028 840.984 463.028C839.424 468.361 838.384 473.014 837.784 477.094C847.824 485.401 867.864 475.428 867.864 475.428Z" fill="#348E3A"/>
<path d="M266.944 708.641C457.944 833.681 693.638 757.614 887.478 561.321C893.504 521.401 883.024 486.081 858.184 463.201C858.184 463.201 802.718 400.574 661.598 498.934C520.478 597.281 378.064 600.521 228.776 513.748C79.4924 426.988 92.8337 341.308 33.7057 366.321C27.7977 368.814 22.643 372.588 18.2577 377.454C32.5364 458.308 85.3817 589.788 266.944 708.641Z" fill="#F9E12F"/>
<path d="M555.544 815.361C771.718 770.241 873.584 653.494 887.478 561.321C693.638 757.614 457.944 833.681 266.944 708.641C85.3816 589.788 32.5363 458.308 18.2577 377.454C-55.8877 459.801 90.4523 858.641 555.544 815.361Z" fill="#F7BC0F"/>
<path d="M661.678 499.094C520.558 597.441 378.131 600.668 228.855 513.908C93.5549 435.268 91.8402 357.534 48.6855 362.268C105.148 522.148 304.211 645.508 472.971 667.134C629.464 687.201 767.904 531.174 829.931 447.668C800.451 439.014 746.558 439.934 661.678 499.094Z" fill="#F7D90A"/>
<path d="M40.5724 388.281C32.2004 393.334 22.8457 393.174 19.679 387.921C16.511 382.668 20.7297 374.321 29.1004 369.268C37.4724 364.214 46.8271 364.374 49.9937 369.628C53.1617 374.881 48.943 383.228 40.5724 388.281Z" fill="#348E3A"/>
<path d="M37.4031 385.068C30.6844 389.121 23.179 388.988 20.6363 384.774C18.095 380.561 21.4804 373.868 28.1977 369.814C34.9151 365.761 42.4231 365.894 44.9644 370.108C47.5057 374.321 44.1217 381.014 37.4031 385.068Z" fill="#221D14"/>
<path d="M945.891 396.748C937.731 417.948 918.691 459.054 888.598 475.788C888.598 475.788 874.344 493.054 861.798 489.561C873.331 531.001 902.731 495.388 902.731 495.388C944.144 472.361 964.624 403.214 964.624 403.214C964.624 403.214 956.544 400.001 945.891 396.748Z" fill="#2C7132"/>
<path d="M888.598 475.788C918.691 459.054 937.731 417.948 945.891 396.748C925.024 390.374 894.291 383.881 895.171 401.254C896.491 427.481 858.998 475.401 858.998 475.401C859.731 480.908 860.678 485.575 861.798 489.561C874.344 493.055 888.598 475.788 888.598 475.788Z" fill="#348E3A"/>
<path d="M434.558 933.334C659.891 969.841 844.251 804.454 941.451 546.268C930.718 507.361 906.784 479.361 874.771 468.561C874.771 468.561 798.624 433.921 709.731 581.188C620.838 728.454 492.051 789.348 320.384 770.828C148.718 752.308 126.044 668.614 82.2069 715.521C77.8269 720.214 74.651 725.748 72.627 731.988C118.567 800.028 220.336 898.628 434.558 933.334Z" fill="#F9E12F"/>
<path d="M741.598 913.388C920.704 784.214 966.264 636.121 941.451 546.268C844.251 804.454 659.891 969.841 434.558 933.334C220.336 898.628 118.567 800.028 72.627 731.988C38.4004 837.374 334.358 1142.16 741.598 913.388Z" fill="#F7BC0F"/>
<path d="M709.878 581.294C620.984 728.561 492.198 789.454 320.518 770.934C164.932 754.161 131.735 683.841 94.2443 705.734C210.871 828.801 442.904 860.494 605.864 811.588C756.984 766.241 819.958 567.388 842.651 465.868C812.198 469.961 763.344 492.721 709.878 581.294Z" fill="#F7D90A"/>
<path d="M97.4135 732.788C91.8215 740.801 83.2109 744.468 78.1816 740.961C73.1509 737.454 73.6069 728.108 79.2002 720.081C84.7909 712.068 93.4029 708.414 98.4323 711.921C103.462 715.428 103.007 724.761 97.4135 732.788Z" fill="#348E3A"/>
<path d="M93.2123 731.148C88.7256 737.574 81.8163 740.521 77.7789 737.708C73.7429 734.881 74.1082 727.388 78.5962 720.948C83.0842 714.521 89.9936 711.574 94.0296 714.401C98.0669 717.214 97.7003 724.708 93.2123 731.148Z" fill="#221D14"/>
</svg>
