<svg width="922" height="908" viewBox="0 0 922 908" fill="none" xmlns="http://www.w3.org/2000/svg">
<path d="M611.913 825.56C362.325 863.96 85.31 677.453 82.5674 389.467C80.8327 207.253 164.734 99.72 226.606 45.3066L181.305 0C22.2274 115.2 -161.535 575.973 252.617 817.333C666.766 1058.69 921.839 740.533 921.839 740.533L871.782 690.48C812.019 749.173 726.021 808 611.913 825.56Z" fill="#5A7327"/>
<path d="M635.226 802.253C385.638 840.64 108.622 654.147 105.881 366.16C104.419 212.68 163.709 112.2 219.418 51.7999C158.443 108.067 80.8993 214.213 82.5673 389.467C85.31 677.453 362.325 863.96 611.913 825.56C726.021 808 812.019 749.173 871.782 690.48L870.889 689.587C812.889 740.227 734.753 786.933 635.226 802.253Z" fill="#B0DD51"/>
<path d="M670.482 730.6C417.01 769.6 137.029 591.12 108.289 308.8C106.555 327.04 105.69 346.133 105.881 366.16C108.622 654.147 385.638 840.64 635.226 802.253C734.753 786.933 812.889 740.227 870.889 689.587L846.889 665.587C797.227 695.88 738.554 720.133 670.482 730.6Z" fill="#D01E25"/>
<path d="M670.482 730.6C738.554 720.133 797.227 695.88 846.889 665.587L226.606 45.3066C224.243 47.3866 221.839 49.5599 219.418 51.7999C170.975 104.32 119.846 187.173 108.289 308.8C137.029 591.12 417.01 769.6 670.482 730.6Z" fill="#EA1C24"/>
<path d="M511.018 390.613C511.018 390.613 501.282 454.547 472.801 436.573C444.321 418.587 511.018 390.613 511.018 390.613Z" fill="#273A1E"/>
<path d="M416.205 542.547C416.205 542.547 408.521 600.52 382.455 584.76C356.391 569 416.205 542.547 416.205 542.547Z" fill="#273A1E"/>
<path d="M317.467 619.347C317.467 619.347 309.783 677.32 283.718 661.56C257.653 645.8 317.467 619.347 317.467 619.347Z" fill="#273A1E"/>
<path d="M416.205 426.893C416.205 426.893 408.521 484.867 382.455 469.107C356.391 453.347 416.205 426.893 416.205 426.893Z" fill="#273A1E"/>
<path d="M252.319 556.373C252.319 556.373 230.359 610.573 209.073 588.787C187.786 567 252.319 556.373 252.319 556.373Z" fill="#273A1E"/>
<path d="M328.147 502.2C328.147 502.2 329.613 560.653 301.406 549.16C273.199 537.667 328.147 502.2 328.147 502.2Z" fill="#273A1E"/>
<path d="M723.73 644.52C723.73 644.52 784.147 667.573 760.543 691.6C736.941 715.627 723.73 644.52 723.73 644.52Z" fill="#273A1E"/>
<path d="M668.945 699.013C668.945 699.013 716.137 743.227 685.194 756.533C654.251 769.84 668.945 699.013 668.945 699.013Z" fill="#273A1E"/>
<path d="M590.767 635.373C590.767 635.373 630.401 686.467 597.747 694.72C565.095 702.987 590.767 635.373 590.767 635.373Z" fill="#273A1E"/>
<path d="M632.289 545.187C632.289 545.187 688.366 577.387 661.301 597.44C634.237 617.493 632.289 545.187 632.289 545.187Z" fill="#273A1E"/>
<path d="M582.07 732.707C582.07 732.707 606.262 782.493 577.455 783.667C548.647 784.827 582.07 732.707 582.07 732.707Z" fill="#273A1E"/>
<path d="M582.63 481.947C582.63 481.947 576.729 546.347 547.225 530.093C517.722 513.84 582.63 481.947 582.63 481.947Z" fill="#273A1E"/>
<path d="M529.645 604.907C529.645 604.907 534.441 669.387 502.662 658.227C470.883 647.067 529.645 604.907 529.645 604.907Z" fill="#273A1E"/>
<path d="M428.333 670.547C428.333 670.547 420.647 728.52 394.583 712.76C368.518 697 428.333 670.547 428.333 670.547Z" fill="#273A1E"/>
<path d="M487.165 720.88C487.165 720.88 502.589 768.133 476.819 765.64C451.05 763.147 487.165 720.88 487.165 720.88Z" fill="#273A1E"/>
<path d="M278.598 170.933C278.598 170.933 255.546 110.52 231.518 134.12C207.491 157.72 278.598 170.933 278.598 170.933Z" fill="#273A1E"/>
<path d="M224.103 225.72C224.103 225.72 179.893 178.533 166.59 209.467C153.289 240.413 224.103 225.72 224.103 225.72Z" fill="#273A1E"/>
<path d="M287.753 303.893C287.753 303.893 236.657 264.267 228.398 296.92C220.139 329.573 287.753 303.893 287.753 303.893Z" fill="#273A1E"/>
<path d="M377.931 262.373C377.931 262.373 345.73 206.293 325.682 233.36C305.634 260.427 377.931 262.373 377.931 262.373Z" fill="#273A1E"/>
<path d="M190.41 312.6C190.41 312.6 140.622 288.4 139.461 317.213C138.298 346.013 190.41 312.6 190.41 312.6Z" fill="#273A1E"/>
<path d="M443.775 316.267C443.775 316.267 379.289 311.467 390.449 343.24C401.61 375.027 443.775 316.267 443.775 316.267Z" fill="#273A1E"/>
<path d="M318.221 365.027C318.221 365.027 253.733 360.227 264.894 392C276.054 423.773 318.221 365.027 318.221 365.027Z" fill="#273A1E"/>
<path d="M252.579 466.333C252.579 466.333 194.609 474.013 210.367 500.08C226.125 526.147 252.579 466.333 252.579 466.333Z" fill="#273A1E"/>
<path d="M202.238 407.493C202.238 407.493 154.985 392.08 157.479 417.84C159.974 443.613 202.238 407.493 202.238 407.493Z" fill="#273A1E"/>
</svg>
