<svg width="951" height="1143" viewBox="0 0 951 1143" fill="none" xmlns="http://www.w3.org/2000/svg">
<path d="M331.337 205.34C339.124 213.513 346.218 217.326 351.818 218.54C357.444 219.753 361.564 218.353 364.337 216.1C367.137 213.833 368.711 210.74 369.698 208.287C370.684 205.807 371.044 203.953 371.044 203.953C371.044 203.94 368.764 202.887 364.591 200.42C360.431 197.94 354.404 193.993 347.364 188.46C340.324 182.94 332.258 175.86 324.231 167.3C316.258 158.753 308.204 148.66 302.298 137.38C296.391 126.193 293.004 113.5 296.298 102.9C297.884 97.5798 301.071 92.6864 305.457 88.4731C309.831 84.2464 315.284 80.7132 320.991 77.8198C326.217 75.1132 331.511 73.8865 336.498 74.2598C341.444 74.6331 346.018 76.6599 349.498 79.7532C353.018 82.8198 355.404 86.8865 356.564 90.9532C357.724 95.0465 357.711 99.1398 356.884 102.74C356.098 106.353 354.271 110.126 351.431 113.593C348.591 117.113 344.764 120.1 340.098 122.9C331.044 128.46 319.737 131.806 308.244 129.993C296.737 128.326 285.657 121.873 276.311 113.566C266.911 105.233 258.924 95.1798 252.098 84.9932C238.471 64.5132 229.298 43.5799 222.964 27.9799C216.604 12.3532 213.391 1.76649 210.351 0.726486C207.311 -0.260178 205.511 -0.366837 204.591 1.19316C203.697 2.76649 203.711 5.96646 204.631 11.0998C205.564 16.2331 207.431 23.2598 210.444 32.5532C213.484 41.8198 217.604 53.3798 223.684 67.5398C226.738 74.6198 230.657 82.5531 235.711 90.9665C240.791 99.3665 246.951 108.273 254.818 116.993C262.698 125.646 272.297 134.34 284.844 140.7C291.097 143.833 298.137 146.3 305.671 147.393C313.191 148.526 321.138 148.193 328.618 146.447C336.124 144.7 343.137 141.647 349.391 137.887C352.537 135.967 355.391 134.166 358.724 131.366C361.764 128.806 364.644 125.846 367.151 122.46C372.178 115.753 375.577 107.167 375.911 98.3532C376.351 89.5532 373.858 80.7932 369.218 73.6198C364.604 66.4465 357.791 60.7665 350.031 57.6198C342.284 54.4065 333.818 53.8198 326.351 55.1398C322.604 55.7798 319.058 56.8465 315.764 58.1799C314.031 58.8999 312.591 59.5798 311.218 60.2598C309.831 60.9398 308.471 61.6464 307.111 62.4064C301.724 65.3931 296.577 68.8731 291.991 73.0331C288.071 76.5798 284.551 80.6465 281.737 85.1799C278.897 89.6999 276.831 94.6732 275.577 99.6598C273.097 109.726 273.978 119.42 276.031 127.647C278.111 135.913 281.311 143.007 284.724 149.313C288.151 155.62 291.857 161.126 295.524 166.073C302.871 175.966 310.057 183.673 316.191 190.033C322.351 196.38 327.537 201.34 331.337 205.34Z" fill="#544031"/>
<path d="M23.2975 804.366C104.204 1058.06 371.964 1199.25 621.351 1119.71C870.737 1040.18 1007.32 770.033 926.404 516.34C845.497 262.633 577.737 121.446 328.351 200.98C78.9642 280.513 -57.6092 550.66 23.2975 804.366Z" fill="#5A7327"/>
<path d="M778.417 1033.65C770.844 1039.97 763.017 1046.06 755.004 1051.91C761.777 1046.78 769.097 1040.97 778.417 1033.65Z" fill="#C6D193"/>
<path d="M778.417 1033.65C783.271 1029.59 788.017 1025.47 792.684 1021.25C788.524 1025.5 784.084 1029.19 778.471 1033.61L778.417 1033.65Z" fill="#E7F074"/>
<path d="M755.004 1051.91C745.951 1058.77 737.844 1064.41 727.137 1070.78C736.684 1064.79 745.977 1058.51 755.004 1051.91Z" fill="#E7F074"/>
<path d="M94.6704 368.193C79.5637 388.9 55.7905 430.206 50.0571 441.246C62.7371 415.606 77.6437 391.153 94.6704 368.193Z" fill="#E7F074"/>
<path d="M24.644 557.766C36.3906 571.046 15.8705 710.513 15.8705 710.513C15.7639 718.033 34.3773 792.073 35.6973 804.033C37.004 815.993 54.8306 840.54 80.4572 897.34C85.3506 908.193 116.071 938.473 120.097 949.686C124.137 960.9 172.431 1005.46 181.311 1017.63C190.191 1029.79 253.164 1083.75 266.684 1090.86C276.337 1095.94 341.177 1118.23 377.577 1130.62C216.591 1094.67 77.6973 974.953 23.2973 804.366C-16.4227 679.806 -3.70265 551.313 49.0307 443.34C42.1907 458.66 13.284 544.899 24.644 557.766Z" fill="#8CA846"/>
<path d="M335.444 281.193C327.737 247.406 331.497 217.286 333.711 204.913C339.391 220.393 353.177 242.006 379.351 274.686C383.817 280.273 397.111 299.02 414.377 360.98C419.524 379.473 429.764 393.566 437.831 410.993C445.884 428.42 462.924 450.473 477.19 510.9C480.51 524.993 483.497 546.38 504.484 612.166C510.311 630.446 518.43 640.206 541.87 690.206C547.03 701.193 552.004 721.966 547.884 748.273C543.777 774.566 557.191 785.286 576.631 854.06C581.164 870.1 588.924 892.633 593.99 908.513C599.057 924.38 599.484 949.233 606.857 1019.37C608.897 1038.9 626.017 1090.99 632.097 1109.07C631.964 1109.37 631.831 1109.69 631.697 1109.99C623.644 1095.93 616.364 1114.93 568.577 1069.07C546.937 1048.31 559.924 1036.83 535.364 1014.69C510.791 992.526 516.444 963.22 501.151 923.113C485.871 883.006 493.39 883.113 471.204 852.7C449.004 822.3 455.284 802.793 434.031 774.58C412.777 746.38 435.124 731.74 413.764 696.94C392.404 662.14 402.897 662.046 392.551 630.366C382.204 598.673 382.737 591.006 371.07 562.233C359.39 533.473 376.004 530.673 368.857 500.46C361.724 470.246 359.457 470.966 350.777 443.753C342.097 416.526 360.444 395.686 342.057 361.553C323.684 327.433 345.551 325.46 335.444 281.193ZM296.097 231.326C294.004 238.5 291.711 245.353 289.284 250.926C279.191 274.14 291.15 280.326 278.724 366.766C274.937 393.113 300.817 404.7 299.604 440.073C298.39 475.46 312.63 480.9 309.244 509.486C305.857 538.046 308.751 547.126 328.897 618.166C333.017 632.66 330.777 647.566 343.657 719.3C346.777 736.686 354.257 752.54 382.204 801.113C389.724 814.166 391.751 823.06 409.017 885.033C412.844 898.793 424.404 917.62 457.551 974.526C469.351 994.78 472.217 1004.83 507.631 1061.02C515.497 1073.49 521.364 1076.71 549.031 1096.73C543.511 1096.91 542.897 1098.63 556.711 1102.3C559.604 1104.42 562.711 1106.7 566.031 1109.17C528.617 1121.91 489.537 1074.29 489.537 1074.29C474.724 1066.51 464.724 1059.7 405.884 1008.49C382.471 988.1 391.017 993.233 366.551 963.553C342.097 933.86 350.351 936.233 332.684 904.38C315.017 872.513 326.177 883.953 295.844 856.153C265.51 828.326 289.404 815.713 272.67 771.06C255.937 726.42 254.284 736.94 249.51 698.473C244.75 660.006 238.671 664.446 227.817 630.42C216.964 596.393 226.857 588.233 215.284 551.94C203.711 515.646 220.817 475.206 219.577 463.1C218.337 451.006 244.884 362.566 248.67 303.873C249.924 284.353 260.377 265.086 273.764 248.033C281.244 242.366 288.737 236.766 296.097 231.326ZM395.631 228.22C401.537 235.006 469.631 283.393 469.631 283.393C475.511 294.006 497.084 314.62 531.51 363.62C544.297 381.833 549.537 392.86 548.151 415.793C546.751 438.726 609.617 463.673 609.617 463.673C609.617 463.673 624.284 493.98 639.284 556.673C642.604 570.566 656.937 588.526 681.204 633.273C689.23 648.073 683.084 662.673 695.817 726.086C698.617 740.1 703.764 751.033 721.857 807.74C729.097 830.433 722.804 849.94 694.524 941.433C687.564 963.926 685.75 976.713 683.91 1002.3C682.697 1019.05 676.47 1037.78 667.711 1053.46C664.964 1038.7 660.324 1017.93 653.844 984.393C647.724 952.753 653.457 969.526 658.977 892.78C660.737 868.326 655.657 858.86 659.151 822.753C662.631 786.646 659.151 822.753 643.217 732.86C637.751 701.993 616.977 706.233 606.857 674.473C596.724 642.726 600.337 654.073 606.684 618.313C613.031 582.54 584.724 581.566 583.897 546.846C583.071 512.113 566.017 515.06 549.897 480.22C533.791 445.366 515.004 441.353 492.284 393.62C469.564 345.886 434.564 314.566 409.777 252.486C406.084 243.246 401.191 235.22 395.631 228.22ZM328.351 200.98C301.137 209.66 275.271 220.606 250.884 233.553C250.884 233.566 250.364 235.033 249.444 237.526C227.577 255.14 235.23 260.66 217.337 268.873C193.51 279.833 154.284 321.473 132.751 355.833C111.204 390.193 110.591 347.873 85.4173 438.42C77.9773 465.126 64.2038 470.166 54.8438 505.646C45.4838 541.113 41.3506 547.433 38.6839 578.273C36.0306 609.113 43.5504 609.206 40.9904 632.513C38.4304 655.833 52.7637 653.753 43.537 686.686C34.3237 719.62 58.0571 709.553 63.6438 742.753C69.2438 775.953 74.497 776.78 80.937 796.98C87.3904 817.18 101.964 808.006 113.537 844.313C125.11 880.606 134.191 877.713 145.231 896.673C156.284 915.646 163.097 913.473 202.431 968.406C216.324 987.82 227.617 990.366 259.417 1035.21C265.097 1043.22 316.711 1089.42 316.711 1089.42C323.364 1094.73 383.897 1131.61 384.79 1132.15C442.897 1144.17 503.711 1145.31 564.377 1134.02C557.671 1134.06 548.897 1134.79 536.777 1136.69C482.271 1145.19 505.924 1134.03 469.977 1118.01C434.017 1101.98 445.244 1108.39 347.844 1069.49C310.19 1054.43 308.31 1039.59 286.124 1009.19C263.924 978.793 257.937 975.7 219.431 925.5C180.924 875.313 189.791 887.46 164.817 850.446C139.831 813.433 134.35 807.673 125.537 764.366C116.724 721.06 102.617 700.326 91.7639 666.313C80.9105 632.286 68.7105 586.193 69.3105 551.006C69.9105 515.833 99.4972 478.9 119.844 429.926C140.19 380.953 150.804 357.58 194.31 313.713C202.71 305.233 214.577 294.873 228.244 283.673C222.884 292.846 216.99 301.06 210.977 305.886C190.417 322.446 205.257 340.206 205.257 340.206C201.244 358.98 193.324 389.006 188.39 420.566C183.457 452.126 169.844 456.473 169.844 456.473C163.657 468.446 155.297 541.086 155.297 541.086C145.257 569.273 156.19 578.286 155.07 606.126C153.95 633.98 158.391 640.073 161.164 666.673C163.924 693.286 166.777 689.873 179.897 723.18C193.017 756.486 184.871 746.58 193.897 767.073C202.924 787.553 202.43 785.966 242.91 858.033C259.23 887.1 254.577 886.793 301.977 949.153C311.63 961.873 356.884 1011.62 356.884 1011.62C366.591 1018.53 409.124 1057.45 409.124 1057.45C421.937 1065.86 446.177 1095.61 446.177 1095.61C453.604 1103.23 495.497 1124.86 495.497 1124.86C508.137 1127.85 560.19 1132.89 566.911 1133.53C585.097 1130.05 603.271 1125.47 621.351 1119.71C636.991 1114.73 652.19 1108.98 666.91 1102.55C667.324 1100.97 667.71 1099.46 668.057 1098.01C674.99 1088.22 684.71 1075.33 698.99 1057.46C717.844 1033.87 725.804 1023.93 729.737 985.18C733.67 946.433 764.631 934.06 762.964 889.606C761.284 845.166 764.577 824.113 762.897 779.66C761.217 735.22 757.831 763.78 758.364 683.646C758.537 657.3 737.537 645.3 735.084 616.086C732.631 586.886 717.91 591.58 710.244 544.033C702.59 496.5 689.591 510.633 675.751 475.06C661.911 439.5 647.671 434.046 635.164 410.526C622.671 387.02 597.284 370.126 580.351 340.54C563.417 310.953 534.217 297.78 518.004 270.46C501.79 243.14 462.684 238.113 442.657 214.513C442.097 213.86 441.391 213.18 440.697 212.5C462.577 214.62 484.484 216.166 484.484 216.166C484.484 216.166 511.057 225.18 574.524 267.42C592.27 279.22 614.164 289.78 628.097 317.82C642.044 345.86 664.537 353.686 672.59 371.113C680.657 388.526 710.377 419.033 714.724 432.646C719.057 446.26 737.644 465.326 757.044 479.126C776.444 492.94 773.057 521.5 783.59 554.5C794.11 587.5 800.751 592.646 805.817 608.526C810.884 624.406 828.537 656.26 840.737 669.86C852.95 683.473 841.257 719.686 841.07 734.74C840.87 749.793 835.937 781.366 839.457 800.233C842.977 819.113 841.124 844.686 845.377 865.833C849.617 886.966 820.55 921.233 809.004 939.913C797.457 958.58 774.897 1013.26 762.724 1022.14C750.564 1031.02 709.564 1081.26 702.564 1085.09V1085.1C710.884 1080.58 719.03 1075.83 726.99 1070.86L727.137 1070.78C736.684 1064.79 745.977 1058.51 755.004 1051.91C761.777 1046.78 769.097 1040.97 778.417 1033.65C783.271 1029.59 788.017 1025.47 792.684 1021.25C804.724 1008.94 814.27 991.926 842.337 939.273C857.364 911.1 877.044 863.22 877.044 863.22C883.417 836.193 884.044 845.993 876.19 781.02C872.19 747.926 887.404 762.446 867.817 626.246C863.151 593.793 853.364 600.86 845.137 559.366C836.897 517.886 832.391 535.073 813.284 498.686C794.164 462.286 800.684 482.7 783.017 450.846C765.364 418.993 759.19 430.966 753.924 397.646C748.67 364.34 723.67 382.3 702.91 356.433C682.164 330.566 688.044 341.18 669.564 314.593C651.084 287.993 652.537 292.526 586.897 243.486C562.031 224.9 546.537 218.86 518.07 207.953C514.03 206.406 506.83 204.606 497.47 202.673C544.697 206.473 587.964 210.42 597.084 212.74C618.857 218.3 709.07 257.006 709.07 257.006C709.07 257.006 747.164 312.34 772.284 321.82C797.391 331.3 816.377 367.433 844.164 383.873C871.937 400.313 875.044 441.5 887.537 465.006C900.03 488.513 902.604 504.42 910.937 538.393C919.27 572.34 919.071 587.406 924.764 613.073C930.444 638.753 921.724 635.02 935.417 662.166C949.111 689.3 898.791 820.78 898.617 851.34C898.444 881.9 878.457 909.273 869.27 932.246C947.35 814.673 973.11 662.766 926.404 516.34C845.497 262.633 577.737 121.446 328.351 200.98Z" fill="#8CA846"/>
<path d="M480.751 1142.35C452.231 1142.35 423.977 1139.73 396.311 1134.63C394.831 1134.29 393.324 1133.93 391.791 1133.57C420.497 1139.06 449.804 1141.89 479.431 1141.89C526.484 1141.89 574.231 1134.74 621.351 1119.71C659.791 1107.46 695.537 1090.67 728.231 1070.11C737.751 1064.41 745.257 1059.23 753.351 1053.17C762.177 1046.77 770.75 1040.09 779.07 1033.14C784.284 1029.02 788.497 1025.5 792.431 1021.51C926.377 900.526 985.177 706.473 927.751 520.646C927.751 520.633 927.751 520.62 927.751 520.62C927.711 520.486 927.671 520.353 927.631 520.22C927.617 520.206 927.617 520.206 927.617 520.18C927.577 520.06 927.537 519.926 927.497 519.806C927.497 519.793 927.484 519.766 927.484 519.753C927.351 519.34 927.217 518.913 927.084 518.5C927.084 518.473 927.07 518.459 927.07 518.433C927.03 518.326 927.004 518.206 926.964 518.099C926.951 518.06 926.937 518.033 926.924 517.98C926.897 517.886 926.857 517.78 926.831 517.686C926.817 517.646 926.804 517.606 926.79 517.566C926.764 517.473 926.737 517.38 926.711 517.286C926.697 517.246 926.67 517.193 926.657 517.153C926.63 517.06 926.591 516.94 926.564 516.846C926.551 516.806 926.55 516.78 926.537 516.753C926.497 516.606 926.444 516.473 926.404 516.34C893.644 413.633 830.257 329.366 749.87 270.713C749.67 270.406 749.47 270.099 749.27 269.806C830.564 328.513 894.697 413.286 927.711 516.82C928.391 518.966 929.057 521.113 929.711 523.26C929.924 523.966 930.137 524.659 930.337 525.366C930.777 526.819 931.204 528.273 931.631 529.74C931.871 530.553 932.097 531.38 932.337 532.206C932.71 533.553 933.097 534.9 933.457 536.246C933.697 537.1 933.937 537.953 934.164 538.806C934.524 540.14 934.871 541.473 935.217 542.806C935.431 543.646 935.657 544.486 935.87 545.34C936.23 546.74 936.577 548.14 936.911 549.54C937.111 550.3 937.297 551.06 937.484 551.82C937.884 553.5 938.271 555.166 938.657 556.846C938.764 557.34 938.884 557.82 938.99 558.299C939.484 560.473 939.951 562.633 940.417 564.806C940.524 565.3 940.617 565.806 940.724 566.299C941.07 567.966 941.404 569.633 941.737 571.286C941.884 572.046 942.031 572.806 942.177 573.553C942.444 574.98 942.724 576.393 942.977 577.806C943.124 578.633 943.271 579.446 943.417 580.273C943.671 581.633 943.91 583.006 944.137 584.366C944.27 585.193 944.417 586.02 944.551 586.846C944.777 588.246 945.004 589.646 945.217 591.033C945.337 591.806 945.457 592.593 945.577 593.366C945.817 594.913 946.031 596.46 946.257 598.006C946.337 598.633 946.431 599.246 946.511 599.86C947.111 604.206 947.644 608.553 948.124 612.9C948.19 613.513 948.244 614.113 948.311 614.713C948.471 616.273 948.63 617.846 948.79 619.406C948.857 620.153 948.924 620.886 948.99 621.633C949.124 623.073 949.244 624.5 949.364 625.94C949.431 626.713 949.497 627.486 949.551 628.26C949.657 629.7 949.764 631.126 949.857 632.553C949.911 633.3 949.964 634.046 950.017 634.793C950.111 636.313 950.204 637.846 950.284 639.38C950.324 640.006 950.35 640.633 950.391 641.273C950.484 643.206 950.564 645.126 950.644 647.06C950.657 647.286 950.657 647.5 950.67 647.713C950.75 649.926 950.817 652.14 950.87 654.353C950.884 654.646 950.884 654.926 950.884 655.22C950.924 657.086 950.964 658.953 950.977 660.82C950.991 661.42 950.99 662.02 950.99 662.606C951.004 664.18 951.004 665.74 951.004 667.313C950.99 667.993 950.99 668.66 950.99 669.34C950.977 670.846 950.95 672.353 950.937 673.846C950.924 674.526 950.911 675.206 950.897 675.873C950.857 677.433 950.817 678.993 950.777 680.553C950.751 681.14 950.737 681.74 950.711 682.326C950.657 684.126 950.577 685.926 950.497 687.713C950.484 688.06 950.471 688.393 950.457 688.74C950.244 693.113 949.977 697.486 949.657 701.846C949.63 702.193 949.591 702.54 949.564 702.886C949.431 704.673 949.284 706.473 949.124 708.26C949.084 708.793 949.031 709.313 948.977 709.846C948.831 711.473 948.671 713.1 948.511 714.713C948.457 715.286 948.39 715.846 948.337 716.42C948.164 718.046 947.977 719.673 947.79 721.286C947.737 721.806 947.684 722.313 947.617 722.833C947.404 724.62 947.177 726.406 946.951 728.193C946.911 728.513 946.871 728.846 946.817 729.166C945.964 735.673 944.964 742.153 943.844 748.606C943.804 748.9 943.737 749.193 943.697 749.486C943.377 751.313 943.044 753.126 942.697 754.94C942.631 755.353 942.55 755.753 942.47 756.166C942.137 757.9 941.804 759.633 941.444 761.366C941.364 761.766 941.284 762.166 941.204 762.566C940.83 764.38 940.457 766.206 940.057 768.02C940.004 768.286 939.937 768.566 939.884 768.833C938.017 777.38 935.924 785.873 933.604 794.286C933.55 794.5 933.484 794.713 933.431 794.913C932.911 796.793 932.377 798.673 931.831 800.54C931.751 800.793 931.684 801.06 931.604 801.326C931.057 803.206 930.497 805.073 929.924 806.953C929.87 807.14 929.804 807.326 929.751 807.513C926.537 818.006 922.964 828.38 919.057 838.606L918.937 838.9C918.19 840.86 917.417 842.82 916.644 844.766L916.537 845.02C889.684 912.326 847.87 973.06 793.804 1021.91C789.804 1025.98 785.511 1029.57 780.164 1033.77C771.897 1040.69 763.364 1047.33 754.577 1053.69C746.511 1059.73 738.991 1064.91 729.484 1070.62C721.044 1075.93 712.391 1080.98 703.551 1085.77C701.551 1087.13 698.777 1091.35 695.857 1096.85L667.951 1105.74C668.111 1104.05 668.204 1103.06 668.217 1103.03C653.484 1109.46 638.297 1115.21 622.657 1120.19C620.484 1120.89 618.297 1121.55 616.111 1122.22C615.777 1122.33 615.444 1122.42 615.111 1122.51C613.164 1123.1 611.217 1123.67 609.27 1124.23C609.11 1124.29 608.951 1124.33 608.777 1124.38C595.324 1128.22 581.831 1131.43 568.324 1134.02C568.711 1134.06 568.937 1134.07 568.937 1134.07C568.937 1134.07 567.857 1134.25 566.364 1134.49C566.191 1134.49 566.004 1134.5 565.831 1134.5C565.817 1134.5 565.804 1134.5 565.791 1134.5C537.377 1139.79 508.937 1142.35 480.751 1142.35Z" fill="#A1AA73"/>
<path d="M479.431 1141.89C449.804 1141.89 420.497 1139.06 391.791 1133.57C391.604 1133.53 391.404 1133.47 391.217 1133.43C420.097 1138.99 449.631 1141.86 479.457 1141.86C507.604 1141.86 536.004 1139.3 564.377 1134.02C557.671 1134.06 548.897 1134.79 536.777 1136.69C523.844 1138.71 515.297 1139.62 509.324 1139.62C490.137 1139.62 497.391 1130.23 469.977 1118.01C434.017 1101.98 445.244 1108.39 347.844 1069.49C328.284 1061.67 318.377 1053.91 310.257 1043.99C325.737 1045.67 341.377 1046.53 357.111 1046.53C369.777 1046.53 382.497 1045.97 395.257 1044.86C403.191 1052.02 409.124 1057.45 409.124 1057.45C421.937 1065.86 446.177 1095.61 446.177 1095.61C453.604 1103.23 495.497 1124.86 495.497 1124.86C508.137 1127.85 560.191 1132.89 566.911 1133.53C585.097 1130.05 603.271 1125.47 621.351 1119.71C574.231 1134.74 526.484 1141.89 479.431 1141.89ZM621.351 1119.71C636.991 1114.73 652.191 1108.98 666.911 1102.55C667.324 1100.97 667.711 1099.46 668.057 1098.01C674.991 1088.22 684.711 1075.33 698.991 1057.46C717.844 1033.87 725.804 1023.93 729.737 985.18C733.671 946.433 764.631 934.06 762.964 889.606C761.604 853.686 763.497 833.046 763.377 802.993C775.444 781.913 786.031 759.94 795.044 737.26L795.137 737.006C795.937 735.006 796.711 733.006 797.484 730.993L797.604 730.7C801.591 720.246 805.244 709.66 808.564 698.953C808.617 698.753 808.684 698.566 808.737 698.366C809.324 696.46 809.911 694.54 810.471 692.62C810.551 692.353 810.631 692.1 810.711 691.833C811.271 689.913 811.817 688.006 812.364 686.086C812.417 685.873 812.484 685.66 812.537 685.446C814.951 676.86 817.137 668.206 819.097 659.486C819.164 659.206 819.217 658.926 819.284 658.646C819.697 656.806 820.097 654.953 820.484 653.1C820.577 652.686 820.657 652.286 820.751 651.873C821.111 650.113 821.471 648.34 821.831 646.58C821.911 646.166 821.991 645.74 822.071 645.326C822.204 644.66 822.337 643.98 822.471 643.313C828.551 653.793 835.204 663.7 840.737 669.86C852.951 683.473 841.257 719.686 841.071 734.74C840.871 749.793 835.937 781.366 839.457 800.233C842.977 819.113 841.124 844.686 845.377 865.833C849.617 886.966 820.551 921.233 809.004 939.913C797.457 958.58 774.897 1013.26 762.724 1022.14C750.564 1031.02 709.564 1081.26 702.564 1085.09V1085.1C710.884 1080.58 719.031 1075.83 726.991 1070.86L727.137 1070.78C727.511 1070.55 727.871 1070.34 728.231 1070.11C695.537 1090.67 659.791 1107.46 621.351 1119.71ZM753.351 1053.17C753.897 1052.75 754.444 1052.33 755.004 1051.91C763.017 1046.06 770.844 1039.97 778.417 1033.65C778.444 1033.62 778.471 1033.61 778.497 1033.58C778.684 1033.43 778.871 1033.29 779.071 1033.14C770.751 1040.09 762.177 1046.77 753.351 1053.17ZM792.431 1021.51C792.524 1021.43 792.604 1021.34 792.684 1021.25C804.724 1008.94 814.271 991.926 842.337 939.273C857.364 911.1 877.044 863.22 877.044 863.22C883.417 836.193 884.044 845.993 876.191 781.02C872.191 747.926 887.404 762.446 867.817 626.246C863.151 593.793 853.364 600.86 845.137 559.366C840.431 535.686 836.951 531.126 831.271 524.806C831.244 524.26 831.217 523.713 831.191 523.166C831.164 522.406 831.124 521.646 831.084 520.9C831.017 519.446 830.937 517.993 830.844 516.54C830.804 515.753 830.751 514.966 830.711 514.18C830.617 512.726 830.511 511.273 830.417 509.82C830.364 509.06 830.311 508.313 830.244 507.553C830.124 505.966 829.991 504.38 829.857 502.793C829.804 502.18 829.764 501.58 829.711 500.966C829.311 496.553 828.857 492.14 828.351 487.74C828.284 487.113 828.204 486.486 828.124 485.86C827.937 484.3 827.751 482.726 827.551 481.153C827.444 480.366 827.337 479.58 827.231 478.793C827.044 477.38 826.844 475.966 826.644 474.553C826.524 473.713 826.404 472.886 826.284 472.046C826.084 470.66 825.871 469.273 825.657 467.886C825.524 467.06 825.391 466.233 825.257 465.406C825.031 463.966 824.791 462.526 824.551 461.086C824.417 460.326 824.284 459.566 824.151 458.793C823.857 457.113 823.551 455.433 823.244 453.74C823.151 453.233 823.057 452.74 822.964 452.233C822.551 450.033 822.124 447.846 821.684 445.646C821.591 445.153 821.484 444.673 821.377 444.18C821.031 442.486 820.684 440.78 820.311 439.086C820.151 438.313 819.977 437.553 819.804 436.78C819.497 435.353 819.177 433.94 818.857 432.526C818.657 431.673 818.457 430.82 818.257 429.966C817.937 428.62 817.617 427.273 817.284 425.926C817.084 425.06 816.871 424.193 816.644 423.326C816.311 421.966 815.964 420.606 815.617 419.246C815.391 418.406 815.191 417.58 814.964 416.753C814.577 415.273 814.177 413.806 813.777 412.326C813.577 411.62 813.391 410.913 813.204 410.206C812.591 408.033 811.977 405.86 811.351 403.686C803.471 376.713 793.551 351.033 781.817 326.78C802.497 340.38 820.004 369.566 844.164 383.873C871.937 400.313 875.044 441.5 887.537 465.006C900.031 488.513 902.604 504.42 910.937 538.393C919.271 572.34 919.071 587.406 924.764 613.073C930.444 638.753 921.724 635.02 935.417 662.166C949.111 689.3 898.791 820.78 898.617 851.34C898.444 881.9 878.457 909.273 869.271 932.246C946.591 815.82 972.604 665.74 927.751 520.646C985.177 706.473 926.377 900.526 792.431 1021.51ZM927.484 519.753C927.351 519.34 927.217 518.926 927.084 518.5C927.217 518.913 927.351 519.34 927.484 519.753ZM926.924 517.98C926.897 517.886 926.871 517.78 926.831 517.686C926.857 517.78 926.897 517.886 926.924 517.98ZM926.657 517.153C926.631 517.046 926.604 516.94 926.564 516.846C926.591 516.94 926.631 517.06 926.657 517.153ZM926.537 516.753C926.497 516.62 926.444 516.473 926.404 516.34C926.444 516.473 926.497 516.606 926.537 516.753Z" fill="#405927"/>
<path d="M755.004 1051.91C761.777 1046.78 769.097 1040.97 778.417 1033.65C770.844 1039.97 763.017 1046.06 755.004 1051.91Z" fill="#809352"/>
<path d="M778.498 1033.58C783.311 1029.55 788.044 1025.45 792.684 1021.25C792.604 1021.34 792.524 1021.43 792.431 1021.51C788.498 1025.5 784.284 1029.02 779.071 1033.14C778.871 1033.29 778.684 1033.43 778.498 1033.58Z" fill="#93A644"/>
<path d="M727.137 1070.78C736.684 1064.79 745.977 1058.51 755.004 1051.91C754.444 1052.33 753.897 1052.75 753.351 1053.17C745.257 1059.23 737.751 1064.41 728.231 1070.11C727.871 1070.34 727.511 1070.55 727.137 1070.78Z" fill="#93A644"/>
<path d="M345.204 1122.18C344.084 1121.87 343.151 1121.62 342.391 1121.39C342.244 1121.35 342.084 1121.3 341.924 1121.26C341.737 1121.19 341.551 1121.14 341.364 1121.09C336.604 1119.59 331.858 1118.03 327.151 1116.41C326.964 1116.34 326.777 1116.27 326.591 1116.21C324.471 1115.47 322.351 1114.73 320.244 1113.95C328.471 1116.93 336.817 1119.67 345.204 1122.18Z" fill="#A1AA73"/>
<path d="M384.137 1131.75C380.484 1130.89 376.831 1130.01 373.257 1129.15C339.511 1117.65 286.364 1099.33 270.257 1092.5C268.324 1091.53 266.404 1090.55 264.484 1089.57C247.391 1078.79 189.777 1029.23 181.311 1017.63C179.137 1014.65 174.591 1009.71 168.911 1003.81C170.137 1004.39 171.377 1004.98 172.631 1005.55C172.871 1005.67 173.111 1005.78 173.351 1005.9C177.724 1007.93 182.137 1009.89 186.577 1011.77C186.711 1011.82 186.844 1011.87 186.977 1011.94C189.071 1012.82 191.151 1013.69 193.257 1014.53C193.457 1014.62 193.671 1014.7 193.884 1014.79C198.377 1016.59 202.884 1018.33 207.431 1019.99C207.577 1020.05 207.737 1020.1 207.897 1020.17C210.031 1020.94 212.164 1021.7 214.311 1022.45C214.497 1022.5 214.671 1022.57 214.857 1022.63C219.431 1024.21 224.044 1025.71 228.671 1027.14C228.857 1027.19 229.031 1027.26 229.217 1027.31C231.391 1027.98 233.577 1028.63 235.777 1029.27C235.924 1029.31 236.071 1029.35 236.217 1029.39C240.884 1030.74 245.577 1032.02 250.284 1033.21C250.484 1033.26 250.684 1033.31 250.884 1033.35C253.124 1033.93 255.364 1034.47 257.617 1034.99L257.924 1035.07C258.484 1035.19 259.044 1035.33 259.591 1035.46C266.097 1044.13 316.711 1089.42 316.711 1089.42C323.004 1094.45 377.497 1127.7 384.137 1131.75ZM345.297 1122.21C345.271 1122.19 345.231 1122.18 345.204 1122.18C336.817 1119.67 328.471 1116.93 320.244 1113.95C320.151 1113.93 320.071 1113.9 319.977 1113.86C319.817 1113.81 319.657 1113.74 319.497 1113.69C319.417 1113.66 319.351 1113.63 319.271 1113.61C327.857 1116.71 336.537 1119.59 345.297 1122.21Z" fill="#405927"/>
<path d="M373.257 1129.15C361.724 1126.38 351.191 1123.78 345.297 1122.21C336.537 1119.59 327.857 1116.71 319.271 1113.61C314.671 1111.93 310.097 1110.17 305.537 1108.34C305.324 1108.25 305.111 1108.17 304.884 1108.07C302.724 1107.21 300.577 1106.31 298.431 1105.42C298.284 1105.35 298.151 1105.3 298.004 1105.25C293.431 1103.31 288.884 1101.31 284.364 1099.25C284.111 1099.13 283.871 1099.01 283.618 1098.9C281.497 1097.93 279.391 1096.94 277.284 1095.93L276.964 1095.77C274.711 1094.7 272.484 1093.61 270.257 1092.5C286.364 1099.33 339.511 1117.65 373.257 1129.15ZM264.484 1089.57C264.191 1089.42 263.911 1089.27 263.631 1089.13C263.364 1088.99 263.097 1088.85 262.831 1088.71C260.737 1087.63 258.671 1086.53 256.604 1085.42L256.377 1085.3C252.017 1082.94 247.684 1080.51 243.391 1078.03C243.111 1077.86 242.817 1077.7 242.537 1077.53C240.497 1076.34 238.457 1075.13 236.431 1073.91L236.297 1073.83C234.124 1072.51 231.951 1071.18 229.791 1069.83L229.644 1069.74C227.644 1068.5 225.671 1067.23 223.697 1065.97C223.391 1065.77 223.097 1065.57 222.791 1065.37C218.657 1062.69 214.551 1059.94 210.497 1057.13C210.364 1057.03 210.231 1056.94 210.097 1056.85C208.244 1055.55 206.404 1054.25 204.564 1052.94C204.257 1052.71 203.937 1052.49 203.631 1052.26C199.644 1049.39 195.697 1046.47 191.804 1043.49C191.604 1043.33 191.404 1043.17 191.191 1043.01C189.471 1041.69 187.751 1040.34 186.044 1038.99C185.724 1038.74 185.404 1038.49 185.084 1038.23C181.271 1035.19 177.484 1032.09 173.751 1028.93C173.484 1028.71 173.231 1028.49 172.964 1028.26C171.351 1026.9 169.764 1025.51 168.164 1024.13C167.844 1023.85 167.524 1023.57 167.191 1023.29C163.537 1020.07 159.924 1016.81 156.364 1013.49C156.057 1013.21 155.764 1012.91 155.457 1012.63C153.951 1011.23 152.457 1009.81 150.977 1008.38C150.657 1008.07 150.324 1007.75 150.004 1007.45C146.511 1004.07 143.071 1000.65 139.684 997.153C139.351 996.82 139.017 996.473 138.697 996.14C137.284 994.686 135.884 993.233 134.497 991.753C134.177 991.42 133.857 991.073 133.537 990.74C130.231 987.206 126.964 983.62 123.751 979.98C123.391 979.593 123.044 979.193 122.697 978.793C122.377 978.42 122.057 978.06 121.737 977.686C123.431 978.753 125.124 979.833 126.818 980.873L126.951 980.953C128.911 982.166 130.871 983.353 132.857 984.526C133.124 984.7 133.404 984.86 133.684 985.02C137.831 987.486 142.017 989.873 146.244 992.193L146.471 992.313C148.457 993.406 150.471 994.486 152.484 995.553C152.751 995.686 153.004 995.833 153.271 995.966C157.537 998.206 161.844 1000.39 166.177 1002.5L166.484 1002.65C167.298 1003.03 168.097 1003.42 168.911 1003.81C174.591 1009.71 179.137 1014.65 181.311 1017.63C189.777 1029.23 247.391 1078.79 264.484 1089.57Z" fill="#5F7C38"/>
<path d="M552.791 1111.34C519.937 1111.34 489.537 1074.29 489.537 1074.29C478.297 1068.39 469.831 1063.05 440.737 1038.47C443.044 1038.03 445.364 1037.57 447.657 1037.09C447.857 1037.07 448.044 1037.07 448.231 1037.06C449.684 1036.79 450.751 1036.61 450.751 1036.61C450.751 1036.61 450.524 1036.58 450.151 1036.55C462.364 1033.91 474.577 1030.75 486.764 1027.03C492.151 1036.13 498.911 1047.17 507.631 1061.02C515.497 1073.49 521.364 1076.71 549.031 1096.73C543.511 1096.91 542.897 1098.63 556.711 1102.3C559.604 1104.42 562.711 1106.7 566.031 1109.17C561.617 1110.67 557.177 1111.34 552.791 1111.34ZM631.697 1109.99C623.644 1095.93 616.364 1114.93 568.577 1069.07C546.937 1048.31 559.924 1036.83 535.364 1014.69C533.977 1013.43 532.684 1012.17 531.484 1010.87C537.124 1008.5 542.711 1006.02 548.231 1003.43C548.231 1003.46 548.124 1004.47 547.924 1006.19L575.337 996.7C578.271 991.073 581.057 986.74 583.031 985.313C589.577 981.553 596.018 977.646 602.351 973.593C603.524 986.26 604.951 1001.31 606.857 1019.37C608.897 1038.9 626.017 1090.99 632.097 1109.07C631.964 1109.37 631.831 1109.69 631.697 1109.99ZM667.711 1053.46C664.964 1038.7 660.324 1017.93 653.844 984.393C649.217 960.486 651.364 964.22 655.057 934.406C656.284 933.353 657.511 932.3 658.724 931.233C664.017 926.873 668.271 923.166 672.244 918.966C687.591 904.513 701.964 889.073 715.324 872.806C710.484 889.86 703.657 911.9 694.524 941.433C687.564 963.926 685.751 976.713 683.911 1002.3C682.697 1019.05 676.471 1037.78 667.711 1053.46Z" fill="#405927"/>
<path d="M479.458 1141.86C449.631 1141.86 420.098 1138.99 391.218 1133.43C388.884 1132.87 386.511 1132.31 384.137 1131.75C377.497 1127.7 323.004 1094.45 316.711 1089.42C316.711 1089.42 266.097 1044.13 259.591 1035.46C261.457 1035.89 263.311 1036.3 265.178 1036.71C279.364 1041.51 289.124 1044.78 289.124 1044.78C281.671 1041.41 275.551 1038.91 272.364 1038.19C284.871 1040.67 297.511 1042.62 310.257 1043.99C318.377 1053.91 328.284 1061.67 347.844 1069.49C445.244 1108.39 434.018 1101.98 469.978 1118.01C497.391 1130.23 490.137 1139.62 509.324 1139.62C515.298 1139.62 523.844 1138.71 536.778 1136.69C548.898 1134.79 557.671 1134.06 564.378 1134.02C536.004 1139.3 507.604 1141.86 479.458 1141.86ZM566.911 1133.53C560.191 1132.89 508.138 1127.85 495.498 1124.86C495.498 1124.86 453.604 1103.23 446.178 1095.61C446.178 1095.61 421.938 1065.86 409.124 1057.45C409.124 1057.45 403.191 1052.02 395.257 1044.86C410.378 1043.53 425.551 1041.42 440.737 1038.47C469.831 1063.05 478.297 1068.39 489.537 1074.29C489.537 1074.29 519.938 1111.34 552.791 1111.34C557.177 1111.34 561.618 1110.67 566.031 1109.17C562.711 1106.7 559.604 1104.42 556.711 1102.3C542.898 1098.63 543.511 1096.91 549.031 1096.73C521.364 1076.71 515.498 1073.49 507.631 1061.02C498.911 1047.17 492.151 1036.13 486.764 1027.03C487.778 1026.73 488.804 1026.41 489.831 1026.09C489.991 1026.03 490.151 1025.99 490.311 1025.94C492.218 1025.34 494.138 1024.73 496.044 1024.1C496.378 1023.99 496.698 1023.89 497.031 1023.78C499.164 1023.07 501.311 1022.35 503.444 1021.61C512.964 1018.31 522.311 1014.73 531.484 1010.87C532.684 1012.17 533.978 1013.43 535.364 1014.69C559.924 1036.83 546.938 1048.31 568.578 1069.07C616.364 1114.93 623.644 1095.93 631.698 1109.99C631.831 1109.69 631.964 1109.37 632.098 1109.07C626.018 1090.99 608.897 1038.9 606.858 1019.37C604.951 1001.31 603.524 986.26 602.351 973.593C604.444 972.246 606.537 970.886 608.604 969.5C617.991 963.553 625.417 958.166 633.404 951.886C640.804 946.26 648.018 940.433 655.057 934.406C651.364 964.22 649.218 960.486 653.844 984.393C660.324 1017.93 664.964 1038.7 667.711 1053.46C676.471 1037.78 682.698 1019.05 683.911 1002.3C685.751 976.713 687.564 963.926 694.524 941.433C703.658 911.9 710.484 889.86 715.324 872.806C733.244 850.953 749.311 827.58 763.378 802.993C763.498 833.046 761.604 853.686 762.964 889.606C764.631 934.06 733.671 946.433 729.737 985.179C725.804 1023.93 717.844 1033.87 698.991 1057.46C684.711 1075.33 674.991 1088.22 668.057 1098.01C667.711 1099.46 667.324 1100.97 666.911 1102.55C652.191 1108.98 636.991 1114.73 621.351 1119.71C603.271 1125.47 585.098 1130.05 566.911 1133.53ZM702.564 1085.1V1085.09C709.564 1081.26 750.564 1031.02 762.724 1022.14C774.898 1013.26 797.457 958.579 809.004 939.913C820.551 921.233 849.618 886.966 845.378 865.833C841.124 844.686 842.978 819.113 839.458 800.233C835.938 781.366 840.871 749.793 841.071 734.74C841.257 719.686 852.951 683.473 840.737 669.86C835.204 663.7 828.551 653.793 822.471 643.313C822.697 642.14 822.911 640.953 823.137 639.78C823.191 639.473 823.244 639.18 823.298 638.873C824.498 632.3 825.578 625.713 826.524 619.086C826.578 618.753 826.617 618.42 826.671 618.086C826.924 616.273 827.164 614.446 827.404 612.633C827.471 612.113 827.537 611.593 827.604 611.073C827.817 609.42 828.018 607.766 828.218 606.099C828.284 605.526 828.351 604.953 828.418 604.38C828.604 602.726 828.778 601.073 828.951 599.42C829.004 598.886 829.071 598.353 829.124 597.806C829.298 595.993 829.471 594.166 829.644 592.34C829.671 591.993 829.711 591.633 829.737 591.286C830.124 586.86 830.457 582.406 830.737 577.953C830.764 577.606 830.777 577.26 830.804 576.913C830.911 575.086 831.004 573.273 831.098 571.446C831.124 570.846 831.151 570.233 831.178 569.633C831.258 568.046 831.324 566.473 831.378 564.886C831.404 564.193 831.431 563.513 831.444 562.833C831.498 561.299 831.538 559.766 831.578 558.246C831.591 557.553 831.604 556.873 831.618 556.18C831.644 554.593 831.671 552.993 831.684 551.406C831.698 550.793 831.698 550.193 831.711 549.593C831.724 547.7 831.724 545.793 831.711 543.9C831.711 543.606 831.711 543.313 831.711 543.02C831.698 540.78 831.671 538.526 831.618 536.286C831.618 536.06 831.617 535.833 831.604 535.62C831.564 533.66 831.511 531.7 831.458 529.74C831.431 529.1 831.404 528.46 831.378 527.82C831.351 526.806 831.311 525.806 831.271 524.806C836.951 531.126 840.431 535.686 845.137 559.366C853.364 600.859 863.151 593.793 867.818 626.246C887.404 762.446 872.191 747.926 876.191 781.02C884.044 845.993 883.418 836.193 877.044 863.22C877.044 863.22 857.364 911.1 842.337 939.273C814.271 991.926 804.724 1008.94 792.684 1021.25C788.044 1025.45 783.311 1029.55 778.498 1033.58C778.471 1033.61 778.444 1033.62 778.418 1033.65C769.098 1040.97 761.777 1046.78 755.004 1051.91C745.977 1058.51 736.684 1064.79 727.137 1070.78L726.991 1070.86C719.031 1075.83 710.884 1080.58 702.564 1085.1ZM869.271 932.246C878.457 909.273 898.444 881.9 898.618 851.34C898.791 820.78 949.111 689.299 935.418 662.166C921.724 635.02 930.444 638.753 924.764 613.073C919.071 587.406 919.271 572.34 910.937 538.393C902.604 504.42 900.031 488.513 887.537 465.006C875.044 441.5 871.938 400.313 844.164 383.873C820.004 369.566 802.498 340.38 781.818 326.78C772.311 307.126 761.631 288.42 749.871 270.713C830.257 329.366 893.644 413.633 926.404 516.34C926.444 516.473 926.497 516.62 926.537 516.753C926.551 516.78 926.551 516.806 926.564 516.846C926.604 516.94 926.631 517.046 926.658 517.153C926.671 517.193 926.698 517.246 926.711 517.286C926.738 517.38 926.764 517.473 926.791 517.566C926.804 517.606 926.818 517.646 926.831 517.686C926.871 517.78 926.898 517.886 926.924 517.979C926.938 518.033 926.951 518.06 926.964 518.099C927.004 518.206 927.031 518.326 927.071 518.433C927.071 518.46 927.084 518.473 927.084 518.5C927.218 518.926 927.351 519.34 927.484 519.753C927.484 519.766 927.498 519.793 927.498 519.806C927.538 519.926 927.578 520.06 927.618 520.18C927.618 520.206 927.618 520.206 927.631 520.22C927.671 520.353 927.711 520.486 927.751 520.62C927.751 520.62 927.751 520.633 927.751 520.646C972.604 665.74 946.591 815.819 869.271 932.246Z" fill="#5F7C38"/>
</svg>
