<svg width="849" height="1096" viewBox="0 0 849 1096" fill="none" xmlns="http://www.w3.org/2000/svg">
<path d="M827.128 7.98657L805.288 -1.52588e-05C786.542 112.72 647.835 199.507 647.835 199.507L657.968 216.933C658.208 216.813 658.435 216.693 658.675 216.56L657.182 214C657.182 214 798.915 125.293 827.128 7.98657Z" fill="#70621F"/>
<path d="M836.448 11.3866L827.128 7.98663C798.915 125.293 657.182 214 657.182 214L658.675 216.56C816.942 136.92 836.448 11.3866 836.448 11.3866Z" fill="#56491B"/>
<path d="M216.982 947.187C215.568 962.146 211.302 977.373 203.928 991.946C176.062 1047.07 114.475 1072.04 66.3951 1047.72C42.2071 1035.49 26.0445 1013.13 19.4872 986.92C15.5645 1028.52 33.7871 1068.09 69.1551 1085.97C117.248 1110.29 178.835 1085.32 206.702 1030.2C220.555 1002.8 223.462 973.107 216.982 947.187Z" fill="#7AA92A"/>
<path d="M66.395 1047.72C114.475 1072.04 176.062 1047.07 203.928 991.947C211.302 977.373 215.568 962.147 216.982 947.187C210.422 920.973 194.262 898.613 170.075 886.387C121.982 862.067 60.4071 887.04 32.5404 942.147C25.1698 956.733 20.8977 971.947 19.4871 986.92C26.0444 1013.13 42.207 1035.49 66.395 1047.72Z" fill="#89C526"/>
<path d="M112.848 943.52C99.6484 953.173 83.4484 953.466 76.6484 944.173C69.8618 934.893 75.0618 919.533 88.2484 909.893C101.448 900.24 117.648 899.947 124.448 909.227C131.235 918.52 126.035 933.867 112.848 943.52Z" fill="#A6D741"/>
<path d="M257.702 665.173C248.008 679.253 235.315 692.013 219.902 702.413C161.622 741.707 86.5817 732.36 52.283 681.507C35.039 655.933 31.3858 624.747 39.4191 595.053C12.4311 634.227 8.58178 683.653 33.8071 721.053C68.1018 771.907 143.142 781.267 201.422 741.96C230.395 722.413 249.768 694.533 257.702 665.173Z" fill="#7AA92A"/>
<path d="M52.2831 681.507C86.5817 732.36 161.622 741.707 219.902 702.413C235.315 692.013 248.008 679.253 257.702 665.173C265.742 635.48 262.088 604.293 244.848 578.72C210.542 527.88 135.502 518.52 77.2352 557.827C61.8165 568.213 49.1231 580.973 39.4191 595.053C31.3858 624.747 35.0391 655.933 52.2831 681.507Z" fill="#89C526"/>
<path d="M156.262 603.747C137.795 606.013 121.528 597.307 119.942 584.307C118.342 571.32 132.022 558.947 150.488 556.68C168.955 554.413 185.222 563.107 186.822 576.107C188.408 589.107 174.728 601.48 156.262 603.747Z" fill="#A6D741"/>
<path d="M204.622 811C201.008 825.6 194.542 840.013 185.088 853.347C149.368 903.733 84.7818 919.307 40.8138 888.147C18.7084 872.48 6.031 847.973 3.42833 821.067C-6.61167 861.64 5.55509 903.467 37.8911 926.387C81.8618 957.56 146.448 941.973 182.168 891.587C199.928 866.533 207.195 837.6 204.622 811Z" fill="#7AA92A"/>
<path d="M40.8138 888.147C84.7818 919.307 149.368 903.733 185.088 853.347C194.542 840.013 201.008 825.6 204.622 811C202.022 784.107 189.342 759.6 167.235 743.933C123.275 712.76 58.679 728.347 22.9617 778.733C13.515 792.053 7.03768 806.48 3.42834 821.067C6.03101 847.973 18.7084 872.48 40.8138 888.147Z" fill="#89C526"/>
<path d="M102.182 791.973C87.7018 799.56 71.6351 797.453 66.2884 787.267C60.9484 777.067 68.3552 762.653 82.8352 755.067C97.3152 747.48 113.382 749.587 118.728 759.773C124.062 769.96 116.662 784.373 102.182 791.973Z" fill="#A6D741"/>
<path d="M366.048 894.08C364.635 909.04 360.368 924.266 352.995 938.84C325.128 993.96 263.555 1018.92 215.462 994.613C191.275 982.386 175.115 960.026 168.555 933.8C164.635 975.413 182.862 1014.97 218.235 1032.87C266.328 1057.19 327.902 1032.21 355.768 977.093C369.622 949.693 372.528 920 366.048 894.08Z" fill="#7AA92A"/>
<path d="M215.462 994.613C263.555 1018.92 325.128 993.96 352.995 938.84C360.368 924.266 364.635 909.04 366.048 894.08C359.488 867.853 343.328 845.493 319.142 833.266C271.048 808.96 209.475 833.92 181.608 889.04C174.235 903.613 169.968 918.84 168.555 933.8C175.115 960.026 191.275 982.386 215.462 994.613Z" fill="#89C526"/>
<path d="M261.915 890.413C248.715 900.053 232.515 900.347 225.728 891.067C218.928 881.773 224.128 866.427 237.328 856.773C250.515 847.133 266.728 846.84 273.515 856.12C280.302 865.413 275.115 880.76 261.915 890.413Z" fill="#A6D741"/>
<path d="M342.142 540.107C331.462 553.453 317.888 565.28 301.768 574.533C240.835 609.573 166.648 594.88 136.075 541.707C120.702 514.974 119.288 483.6 129.422 454.56C99.7017 491.707 92.3284 540.733 114.822 579.84C145.395 633.013 219.582 647.707 280.515 612.667C310.808 595.253 332.128 568.813 342.142 540.107Z" fill="#7AA92A"/>
<path d="M136.075 541.707C166.649 594.88 240.835 609.573 301.769 574.533C317.889 565.28 331.462 553.453 342.142 540.107C352.275 511.067 350.862 479.693 335.488 452.96C304.915 399.787 230.742 385.093 169.795 420.12C153.688 429.387 140.115 441.213 129.422 454.56C119.288 483.6 120.702 514.973 136.075 541.707Z" fill="#89C526"/>
<path d="M245.355 471.573C226.768 472.52 211.168 462.68 210.502 449.6C209.848 436.52 224.368 425.16 242.955 424.227C261.542 423.28 277.142 433.12 277.795 446.2C278.462 459.28 263.928 470.64 245.355 471.573Z" fill="#A6D741"/>
<path d="M378.702 754.347C373.062 770.493 364.195 786.16 352.075 800.253C306.262 853.573 231.422 864.387 184.902 824.413C161.515 804.307 149.742 775.2 149.635 744.44C133.968 789.36 143.328 838.04 177.542 867.44C224.062 907.413 298.902 896.6 344.715 843.293C367.488 816.787 378.795 784.76 378.702 754.347Z" fill="#7AA92A"/>
<path d="M184.902 824.413C231.422 864.387 306.262 853.573 352.075 800.253C364.195 786.16 373.062 770.493 378.702 754.347C378.595 723.587 366.822 694.48 343.435 674.387C296.915 634.413 222.075 645.227 176.262 698.533C164.142 712.64 155.275 728.293 149.635 744.44C149.742 775.2 161.515 804.307 184.902 824.413Z" fill="#87BC27"/>
<path d="M264.622 721.92C247.408 728.987 229.435 724.907 224.462 712.787C219.488 700.68 229.408 685.133 246.622 678.067C263.822 671 281.808 675.08 286.782 687.2C291.755 699.307 281.835 714.853 264.622 721.92Z" fill="#A6D741"/>
<path d="M543.275 772.88C542.249 789.947 537.969 807.427 530.142 824.293C500.542 888.053 431.448 918.8 375.822 892.973C347.848 879.987 328.608 855.16 320.155 825.587C317.275 873.067 339.515 917.387 380.422 936.387C436.062 962.2 505.142 931.453 534.742 867.707C549.462 836 551.635 802.12 543.275 772.88Z" fill="#7AA92A"/>
<path d="M375.822 892.973C431.448 918.8 500.542 888.053 530.142 824.293C537.968 807.427 542.248 789.947 543.275 772.88C534.822 743.307 515.582 718.48 487.608 705.507C431.982 679.68 362.888 710.427 333.288 774.173C325.462 791.04 321.182 808.52 320.155 825.587C328.608 855.16 347.848 879.987 375.822 892.973Z" fill="#89C526"/>
<path d="M424.688 772.68C410.048 784.147 391.622 785.107 383.542 774.8C375.462 764.493 380.795 746.84 395.435 735.36C410.075 723.88 428.502 722.92 436.568 733.227C444.648 743.533 439.328 761.2 424.688 772.68Z" fill="#A6D741"/>
<path d="M479.662 628.573C476.248 645.333 469.568 662.04 459.462 677.64C421.235 736.64 348.515 757.413 297.048 724.053C271.168 707.293 255.595 680.027 251.355 649.56C241.862 696.173 257.688 743.16 295.542 767.693C347.008 801.04 419.728 780.267 457.955 721.267C476.955 691.947 483.848 658.693 479.662 628.573Z" fill="#7AA92A"/>
<path d="M297.048 724.053C348.515 757.413 421.235 736.64 459.462 677.64C469.568 662.04 476.248 645.333 479.662 628.573C475.422 598.107 459.849 570.84 433.969 554.067C382.502 520.72 309.782 541.493 271.555 600.48C261.448 616.093 254.768 632.8 251.355 649.56C255.595 680.027 271.168 707.293 297.048 724.053Z" fill="#89C526"/>
<path d="M362.262 611.787C346.155 621.093 327.795 619.467 321.235 608.133C314.675 596.8 322.422 580.053 338.515 570.747C354.622 561.427 372.995 563.053 379.555 574.387C386.115 585.72 378.368 602.467 362.262 611.787Z" fill="#A6D741"/>
<path d="M624.515 611.973C629.182 628.427 630.928 646.333 629.115 664.84C622.275 734.8 567.248 786.667 506.208 780.707C475.515 777.707 449.142 760.64 431.382 735.533C444.368 781.293 480.022 815.76 524.915 820.147C585.955 826.107 640.982 774.24 647.822 704.28C651.222 669.507 642.075 636.8 624.515 611.973Z" fill="#7AA92A"/>
<path d="M506.209 780.707C567.249 786.667 622.275 734.8 629.115 664.84C630.928 646.333 629.182 628.427 624.515 611.973C606.742 586.867 580.382 569.813 549.688 566.8C488.648 560.84 433.622 612.707 426.782 682.667C424.968 701.173 426.715 719.08 431.382 735.533C449.142 760.64 475.515 777.707 506.209 780.707Z" fill="#87BC27"/>
<path d="M512.528 651.013C502.502 666.693 485.435 673.68 474.408 666.627C463.368 659.573 462.555 641.147 472.582 625.48C482.595 609.8 499.662 602.8 510.702 609.853C521.728 616.907 522.555 635.333 512.528 651.013Z" fill="#A6D741"/>
<path d="M418.848 379.653C408.168 393 394.595 404.827 378.475 414.093C317.542 449.12 243.355 434.427 212.782 381.253C197.408 354.52 195.995 323.147 206.128 294.107C176.408 331.253 169.035 380.28 191.528 419.387C222.102 472.56 296.288 487.253 357.222 452.213C387.515 434.8 408.822 408.36 418.848 379.653Z" fill="#7AA92A"/>
<path d="M212.782 381.253C243.355 434.427 317.542 449.12 378.475 414.093C394.595 404.827 408.168 393 418.848 379.653C428.982 350.613 427.568 319.24 412.195 292.507C381.622 239.333 307.435 224.64 246.502 259.68C230.395 268.933 216.822 280.76 206.128 294.107C195.995 323.147 197.408 354.52 212.782 381.253Z" fill="#89C526"/>
<path d="M322.062 311.12C303.475 312.067 287.875 302.227 287.208 289.147C286.555 276.067 301.075 264.707 319.662 263.773C338.248 262.827 353.848 272.667 354.502 285.747C355.168 298.827 340.635 310.187 322.062 311.12Z" fill="#A6D741"/>
<path d="M540.915 491.907C534.662 507.827 525.195 523.133 512.542 536.747C464.702 588.253 389.488 596.147 344.555 554.4C321.955 533.413 311.328 503.867 312.422 473.12C295.022 517.4 302.475 566.413 335.528 597.12C380.462 638.867 455.675 630.96 503.515 579.467C527.302 553.867 539.848 522.307 540.915 491.907Z" fill="#7AA92A"/>
<path d="M344.555 554.4C389.488 596.147 464.702 588.253 512.542 536.747C525.195 523.133 534.662 507.827 540.915 491.907C542.008 461.173 531.382 431.627 508.795 410.627C463.862 368.88 388.648 376.787 340.795 428.28C328.155 441.907 318.675 457.213 312.422 473.12C311.328 503.867 321.955 533.413 344.555 554.4Z" fill="#87BC27"/>
<path d="M428.195 455.08C410.715 461.48 392.902 456.693 388.408 444.4C383.902 432.107 394.422 416.947 411.902 410.56C429.368 404.16 447.182 408.947 451.688 421.24C456.182 433.533 445.662 448.693 428.195 455.08Z" fill="#A6D741"/>
<path d="M707.048 537.667C707.382 554.76 704.515 572.533 698.075 589.973C673.688 655.893 607.288 692.093 549.755 670.813C520.835 660.107 499.662 636.92 488.862 608.12C489.808 655.68 515.528 698.053 557.835 713.707C615.355 734.987 681.755 698.8 706.142 632.867C718.275 600.093 717.728 566.147 707.048 537.667Z" fill="#7AA92A"/>
<path d="M549.755 670.813C607.288 692.093 673.689 655.893 698.075 589.973C704.515 572.533 707.382 554.76 707.048 537.667C696.235 508.867 675.075 485.667 646.142 474.973C588.622 453.693 522.222 489.893 497.835 555.813C491.382 573.253 488.528 591.013 488.862 608.12C499.662 636.92 520.835 660.107 549.755 670.813Z" fill="#89C526"/>
<path d="M588.822 546.973C575.142 559.6 556.862 562.027 547.982 552.4C539.102 542.773 542.995 524.747 556.662 512.133C570.342 499.52 588.622 497.093 597.502 506.707C606.382 516.333 602.488 534.36 588.822 546.973Z" fill="#A6D741"/>
<path d="M718.462 291.133C710.808 306.427 700.022 320.827 686.195 333.267C633.968 380.307 558.355 381.48 517.315 335.907C496.675 312.987 488.715 282.6 492.542 252.08C471.262 294.627 474.328 344.12 504.515 377.64C545.555 423.213 621.168 422.04 673.408 375C699.382 351.627 714.675 321.307 718.462 291.133Z" fill="#7AA92A"/>
<path d="M517.315 335.907C558.355 381.48 633.968 380.307 686.195 333.267C700.022 320.827 710.808 306.427 718.462 291.133C722.275 260.613 714.315 230.227 693.688 207.32C652.648 161.733 577.035 162.92 524.795 209.947C510.982 222.387 500.182 236.787 492.542 252.08C488.715 282.6 496.675 312.987 517.315 335.907Z" fill="#81B329"/>
<path d="M609.448 244.413C591.475 249.227 574.168 242.88 570.782 230.24C567.395 217.587 579.208 203.427 597.182 198.613C615.155 193.8 632.475 200.147 635.862 212.8C639.248 225.453 627.422 239.6 609.448 244.413Z" fill="#A6D741"/>
<path d="M507.622 299.453C491.435 304.987 473.648 307.68 455.075 306.84C384.848 303.707 330.142 251.493 332.888 190.227C334.262 159.413 349.902 132.187 374.035 113.12C329.022 128.507 296.502 165.92 294.488 210.987C291.742 272.267 346.448 324.48 416.675 327.613C451.582 329.173 483.755 318.307 507.622 299.453Z" fill="#7AA92A"/>
<path d="M332.888 190.227C330.142 251.493 384.848 303.707 455.075 306.84C473.648 307.68 491.435 304.987 507.622 299.453C531.755 280.387 547.408 253.16 548.782 222.347C551.515 161.08 496.808 108.867 426.582 105.733C408.008 104.893 390.222 107.587 374.035 113.12C349.902 132.187 334.262 159.413 332.888 190.227Z" fill="#89C526"/>
<path d="M462.728 189.693C446.542 180.507 438.662 163.84 445.115 152.44C451.582 141.053 469.928 139.267 486.115 148.44C502.302 157.627 510.182 174.293 503.728 185.693C497.262 197.08 478.915 198.867 462.728 189.693Z" fill="#A6D741"/>
<path d="M817.368 361.36C823.475 377.333 826.808 395.027 826.635 413.613C826.008 483.907 775.782 540.44 714.448 539.893C683.622 539.613 655.848 524.96 635.928 501.52C652.915 545.947 691.475 577.12 736.582 577.52C797.915 578.067 848.142 521.533 848.768 451.24C849.075 416.307 837.062 384.533 817.368 361.36Z" fill="#7AA92A"/>
<path d="M714.448 539.893C775.782 540.44 826.008 483.907 826.635 413.613C826.808 395.027 823.475 377.333 817.368 361.36C797.462 337.92 769.688 323.267 738.848 322.987C677.515 322.44 627.288 378.973 626.662 449.267C626.502 467.853 629.822 485.547 635.928 501.52C655.848 524.96 683.622 539.613 714.448 539.893Z" fill="#89C526"/>
<path d="M709.288 410.147C700.688 426.653 684.302 435.133 672.688 429.08C661.075 423.027 658.635 404.747 667.235 388.253C675.822 371.747 692.208 363.267 703.822 369.32C715.435 375.373 717.875 393.653 709.288 410.147Z" fill="#A6D741"/>
<path d="M587.595 346.987C576.662 360.147 562.888 371.72 546.608 380.693C485.048 414.64 411.142 398.627 381.528 344.92C366.635 317.907 365.782 286.52 376.435 257.667C346.062 294.267 337.808 343.16 359.595 382.653C389.208 436.36 463.115 452.387 524.675 418.44C555.275 401.573 577.062 375.52 587.595 346.987Z" fill="#7AA92A"/>
<path d="M381.528 344.92C411.142 398.627 485.048 414.64 546.608 380.693C562.888 371.72 576.662 360.147 587.595 346.987C598.235 318.133 597.395 286.747 582.502 259.733C552.875 206.027 478.968 190.013 417.422 223.947C401.142 232.933 387.355 244.507 376.435 257.667C365.782 286.52 366.635 317.907 381.528 344.92Z" fill="#89C526"/>
<path d="M492.035 276.747C473.449 277.347 458.022 267.24 457.595 254.147C457.168 241.067 471.888 229.96 490.488 229.36C509.088 228.747 524.515 238.867 524.942 251.947C525.369 265.04 510.635 276.133 492.035 276.747Z" fill="#A6D741"/>
<path d="M703.902 371.52C699.822 388.12 692.475 404.547 681.742 419.733C641.168 477.133 567.688 494.973 517.595 459.573C492.408 441.773 477.942 413.907 474.928 383.293C463.582 429.493 477.488 477.067 514.328 503.107C564.422 538.507 637.902 520.667 678.475 463.267C698.648 434.733 706.875 401.787 703.902 371.52Z" fill="#7AA92A"/>
<path d="M517.595 459.573C567.688 494.973 641.168 477.133 681.742 419.733C692.475 404.547 699.822 388.12 703.902 371.52C700.902 340.907 686.422 313.04 661.248 295.24C611.155 259.84 537.662 277.68 497.102 335.08C486.368 350.253 479.022 366.693 474.928 383.293C477.942 413.907 492.408 441.773 517.595 459.573Z" fill="#89C526"/>
<path d="M587.275 350.013C570.809 358.68 552.515 356.307 546.422 344.72C540.329 333.133 548.742 316.707 565.209 308.053C581.675 299.387 599.955 301.76 606.062 313.347C612.155 324.933 603.742 341.347 587.275 350.013Z" fill="#A6D741"/>
</svg>
